<svg id="Capa_1" enable-background="new 0 0 512 512" height="512" viewBox="0 0 512 512" width="512" xmlns="http://www.w3.org/2000/svg"><g><g><path d="m416 350h-310c-57.897 0-105-47.103-105-105 0-34.56 16.873-66.464 44.764-85.983-3.165-11.093-4.764-22.488-4.764-34.017 0-68.925 56.075-125 125-125 39.972 0 77.366 19.27 100.756 51.125 15.352-7.31 32.126-11.125 49.244-11.125 63.411 0 115 51.589 115 115 0 2.053-.055 4.106-.164 6.157 45.363 7.143 80.164 46.505 80.164 93.843 0 52.383-42.617 95-95 95z" fill="#f9f9f9"/><path d="m430.836 161.157c.109-2.05.164-4.104.164-6.157 0-63.411-51.589-115-115-115-17.118 0-33.892 3.815-49.244 11.125-3.312-4.511-6.914-8.76-10.756-12.747v311.622h160c52.383 0 95-42.617 95-95 0-47.338-34.801-86.7-80.164-93.843z" fill="#e2dff4"/></g><g><circle cx="256" cy="357" fill="#09607d" r="155"/><path d="m411 357c0-85.467-69.533-155-155-155v310c85.467 0 155-69.533 155-155z" fill="#07485e"/></g><g><path d="m234.787 414.426c-3.839 0-7.678-1.464-10.606-4.394l-42.426-42.426c-5.858-5.858-5.858-15.355 0-21.213 5.858-5.858 15.355-5.858 21.213 0l31.82 31.82 74.246-74.246c5.858-5.858 15.355-5.858 21.213 0 5.858 5.858 5.858 15.355 0 21.213l-84.853 84.852c-2.93 2.93-6.769 4.394-10.607 4.394z" fill="#bee75e"/></g><path d="m330.246 303.967c-5.858-5.858-15.355-5.858-21.213 0l-53.033 53.033v42.426l74.246-74.245c5.858-5.858 5.858-15.356 0-21.214z" fill="#00cb75"/></g></svg>