<svg height="472pt" viewBox="-24 0 472 472" width="472pt" xmlns="http://www.w3.org/2000/svg"><path d="m424 472v-159.640625c0-19.375-7.03125-38.097656-19.792969-52.679687l-36.207031-43.679688h-32v256zm0 0" fill="#fec9a3"/><path d="m96 432c0 17.671875 14.328125 32 32 32h208c17.671875 0 32-14.328125 32-32v-32h-272zm0 0" fill="#3d4d63"/><path d="m336 0h-208c-17.671875 0-32 14.328125-32 32v16h272v-16c0-17.671875-14.328125-32-32-32zm0 0" fill="#3d4d63"/><path d="m96 48h272v352h-272zm0 0" fill="#348fd9"/><path d="m192 128c-.015625-34.453125-20.144531-65.722656-51.496094-80h-44.503906v167.601562c2.640625.230469 5.296875.398438 8 .398438 48.601562 0 88-39.398438 88-88zm0 0" fill="#2a71ad"/><path d="m96 368v32h272v-304zm0 0" fill="#3086cd"/><path d="m224 424h16v16h-16zm0 0" fill="#2a3845"/><path d="m128 240h208v64h-208zm0 0" fill="#4db7e5"/><path d="m152 264h32v16h-32zm0 0" fill="#79c6e8"/><path d="m200 264h112v16h-112zm0 0" fill="#79c6e8"/><path d="m128 336h208v40h-208zm0 0" fill="#4db7e5"/><path d="m152 360h96v16h-96zm0 0" fill="#79c6e8"/><path d="m264 360h48v16h-48zm0 0" fill="#79c6e8"/><path d="m128 80h208v128h-208zm0 0" fill="#60d1e0"/><path d="m128 184 72-56 48 48 40-32 48 40v24h-208zm0 0" fill="#9fe4ed"/><path d="m272 112c0 13.253906-10.746094 24-24 24s-24-10.746094-24-24 10.746094-24 24-24 24 10.746094 24 24zm0 0" fill="#e94f4f"/><path d="m128 184 63.671875-49.519531c.160156-2.152344.328125-4.296875.328125-6.480469.027344-17.050781-4.9375-33.738281-14.28125-48h-49.71875zm0 0" fill="#5ac6d4"/><path d="m191.671875 134.480469-63.671875 49.519531v24h12.503906c29.199219-13.328125 48.8125-41.511719 51.167969-73.519531zm0 0" fill="#60d1e0"/><path d="m384 336-84-84c-11.042969-11.046875-28.957031-11.046875-40 0-11.046875 11.042969-11.046875 28.957031 0 40l68 68-6.585938 11.527344c-15.339843 26.84375-12.726562 60.332031 6.585938 84.472656v16h56zm0 0" fill="#fec9a3"/><path d="m176 112c0 48.601562-39.398438 88-88 88s-88-39.398438-88-88 39.398438-88 88-88 88 39.398438 88 88zm0 0" fill="#7eb457"/><path d="m144.863281 44.902344c-23.679687 73.496094-80.175781 109.722656-121.359375 126.824218 22.191406 24.039063 55.898438 33.769532 87.488282 25.257813 31.589843-8.511719 55.84375-33.855469 62.957031-65.789063 7.109375-31.933593-4.09375-65.175781-29.085938-86.292968zm0 0" fill="#74ab4d"/><path d="m56 160c-2.121094 0-4.15625-.84375-5.65625-2.34375l-24-24 11.3125-11.3125 18.34375 18.34375 74.34375-74.34375 11.3125 11.3125-80 80c-1.5 1.5-3.535156 2.34375-5.65625 2.34375zm0 0" fill="#5f943a"/></svg>