<svg height="512" viewBox="0 0 512 512" width="512" xmlns="http://www.w3.org/2000/svg"><g id="Flat"><path d="m448 248v32c0 13.3-.63 26.6-1.88 39.82q-1.86 19.86-5.6 39.47l-24.52 128.71h-280a72.006 72.006 0 0 1 -72-72v-168a95.551 95.551 0 0 1 14.37-50.55q2.235-3.6 4.77-6.99 2.325-3.09 4.88-5.99 2.76-3.12 5.78-5.99a95.638 95.638 0 0 1 66.2-26.48h192a96 96 0 0 1 96 96z" fill="#348ed8"/><path d="m248 144h16v344h-16z" fill="#2d7dbe"/><path d="m216 448h16v16h-16z" fill="#2d7dbe"/><rect fill="#fdb683" height="48" rx="24" width="240" x="136" y="104"/><path d="m344 120v40a88 88 0 1 1 -176 0v-40a88 88 0 0 1 176 0z" fill="#fdc8a2"/><path d="m203.578 143.155-7.156-14.31 17.689-8.845-17.689-8.845 7.156-14.31 32 16a8 8 0 0 1 0 14.31z" fill="#91563a"/><path d="m308.422 143.155-32-16a8 8 0 0 1 0-14.31l32-16 7.156 14.31-17.689 8.845 17.689 8.845z" fill="#91563a"/><path d="m312 208a43.134 43.134 0 0 1 -9.43 26.67 88.014 88.014 0 0 1 -93.14 0 43.134 43.134 0 0 1 -9.43-26.67c0-26.51 25.07-48 56-48s56 21.49 56 48z" fill="#d65246"/><path d="m344 120-32-48h-120a24 24 0 0 1 -24-24 24 24 0 0 1 24-24h88a64 64 0 0 1 64 64z" fill="#91563a"/><path d="m100 32a12 12 0 0 0 -12 12v4l-18.684-12.456a21.1 21.1 0 0 0 -11.705-3.544 21.1 21.1 0 0 0 -20.761 17.327l-10.872 59.8a21.1 21.1 0 0 0 5.84 18.7l16.182 16.173 64-64v-36a12 12 0 0 0 -12-12z" fill="#fdc8a2"/><path d="m364.86 280v16h-157.49a71.527 71.527 0 0 1 -50.91-21.09l-78.09-77.46q2.235-3.6 4.77-6.99 2.325-3.09 4.88-5.99l79.75 79.13a55.667 55.667 0 0 0 39.6 16.4z" fill="#2d7dbe"/><path d="m136 283h16v101h-16z" fill="#2d7dbe"/><path d="m223.837 323.005 39.29-28.553a19.313 19.313 0 0 1 14.373-3.452 19.32 19.32 0 0 1 12.605 7.722l23.849 32.818a19.315 19.315 0 0 1 3.452 14.374 19.312 19.312 0 0 1 -7.722 12.6l-80.691 56.823-49.667-67.708 15.161-54.563a16.886 16.886 0 0 1 18.925-12.213 16.885 16.885 0 0 1 14.038 19.318z" fill="#fdc8a2"/><path d="m228.99 415.34-29.03 22.69-12.65 9.88-51.31 40.09a72.006 72.006 0 0 1 -72-72v-8l115.33-60.37z" fill="#459ce5"/><path d="m199.96 438.03-12.65 9.88-33.97-51.47 13.32-8.88z" fill="#3289d1"/><path d="m488 224h-16c0-57.987-41.823-79.951-43.6-80.857l7.182-14.3c2.136 1.072 52.418 26.996 52.418 95.157z" fill="#eaeae8"/><path d="m334.542 384-9.719-12.71c21.289-16.28 16.564-41.323 16.514-41.574l15.689-3.137c.285 1.421 6.644 35.144-22.484 57.421z" fill="#4db6e4"/><path d="m448 231.93v48.07h-237.49a64 64 0 0 1 -45.26-18.75l-83.59-83.59-11.32-11.32-22.34-22.34 64-64 104 96h96l19.96-11.41a77.559 77.559 0 0 1 116.04 67.34z" fill="#348ed8"/><path d="m66.887 141.996h62.225v16.009h-62.225z" fill="#2d7dbe" transform="matrix(.707 -.707 .707 .707 -77.362 113.23)"/><path d="m362.671 40.408h55.517v16h-55.517z" fill="#85ccd5" transform="matrix(.621 -.783 .783 .621 109.892 324.229)"/><path d="m393.52 95.156h68.817v16h-68.817z" fill="#85ccd5" transform="matrix(.937 -.349 .349 .937 -9.108 155.722)"/><g fill="#4db6e4"><path d="m316.644 203.715h16v26.034h-16z" transform="matrix(.776 -.631 .631 .776 -63.968 253.433)"/><path d="m268.923 223.231h23.57v16h-23.57z" transform="matrix(.051 -.999 .999 .051 35.374 499.699)"/></g></g></svg>