<svg height="512" viewBox="0 0 64 64" width="512" xmlns="http://www.w3.org/2000/svg" xmlns:xlink="http://www.w3.org/1999/xlink"><linearGradient id="New_Gradient_Swatch_1" gradientUnits="userSpaceOnUse" x1="32" x2="32" y1="-2.554" y2="66.528"><stop offset="0" stop-color="#fff33b"/><stop offset=".014" stop-color="#fee72e"/><stop offset=".042" stop-color="#fed51b"/><stop offset=".07" stop-color="#fdca10"/><stop offset=".1" stop-color="#fdc70c"/><stop offset=".4" stop-color="#f3903f"/><stop offset=".8" stop-color="#ed683c"/><stop offset="1" stop-color="#e93e3a"/></linearGradient><linearGradient id="New_Gradient_Swatch_1-2" x1="39" x2="39" xlink:href="#New_Gradient_Swatch_1" y1="-2.554" y2="66.528"/><linearGradient id="New_Gradient_Swatch_1-3" x1="44" x2="44" xlink:href="#New_Gradient_Swatch_1" y1="-2.554" y2="66.528"/><linearGradient id="New_Gradient_Swatch_1-4" x1="43" x2="43" xlink:href="#New_Gradient_Swatch_1" y1="-2.554" y2="66.528"/><g id="file-document-protection-insurance-calendar"><path d="m59 14h-7v-1a3.009 3.009 0 0 0 -3-3h-2a3.009 3.009 0 0 0 -3 3v1h-4v-9a3.009 3.009 0 0 0 -3-3h-26a1.033 1.033 0 0 0 -.71.29l-8 8a1.033 1.033 0 0 0 -.29.71v50a1 1 0 0 0 1 1h34a3.009 3.009 0 0 0 3-3v-5h19a3.009 3.009 0 0 0 3-3v-34a3.009 3.009 0 0 0 -3-3zm-13-1a1 1 0 0 1 1-1h2a1 1 0 0 1 1 1v4a1 1 0 0 1 -1 1h-2a1 1 0 0 1 -1-1zm-36-7.59v3.59a1 1 0 0 1 -1 1h-3.59zm28 53.59a1 1 0 0 1 -1 1h-33v-48h5a3.009 3.009 0 0 0 3-3v-5h25a1 1 0 0 1 1 1v9h-4v-1a3.009 3.009 0 0 0 -3-3h-2a3.009 3.009 0 0 0 -3 3v1h-7a3.009 3.009 0 0 0 -3 3v34a3.009 3.009 0 0 0 3 3h19zm-6-46v4a1 1 0 0 1 -1 1h-2a1 1 0 0 1 -1-1v-4a1 1 0 0 1 1-1h2a1 1 0 0 1 1 1zm28 38a1 1 0 0 1 -1 1h-40a1 1 0 0 1 -1-1v-34a1 1 0 0 1 1-1h7v1a3.009 3.009 0 0 0 3 3h2a3.009 3.009 0 0 0 3-3v-1h10v1a3.009 3.009 0 0 0 3 3h2a3.009 3.009 0 0 0 3-3v-1h7a1 1 0 0 1 1 1z" fill="url(#New_Gradient_Swatch_1)"/><path d="m57 22h-36a1 1 0 0 0 -1 1v26a1 1 0 0 0 1 1h36a1 1 0 0 0 1-1v-26a1 1 0 0 0 -1-1zm-29 13h-6v-4h6zm0 2v4h-6v-4zm0-13v5h-6v-5zm-6 19h6v5h-6zm34 5h-26v-24h26z" fill="url(#New_Gradient_Swatch_1-2)"/><path d="m43 38a1 1 0 0 0 .707-.293l4-4-1.414-1.414-3.293 3.293-1.293-1.293-1.414 1.414 2 2a1 1 0 0 0 .707.293z" fill="url(#New_Gradient_Swatch_1-3)"/><path d="m36.051 39.464 6.242 6.243a1 1 0 0 0 1.414 0l6.242-6.242a6.955 6.955 0 0 0 2.051-4.95v-3.515a1 1 0 0 0 -.553-.895l-8-4a1 1 0 0 0 -.894 0l-8 4a1 1 0 0 0 -.553.895v3.515a6.951 6.951 0 0 0 2.051 4.949zm-.051-7.846 7-3.5 7 3.5v2.9a4.967 4.967 0 0 1 -1.465 3.535l-5.535 5.533-5.535-5.536a4.967 4.967 0 0 1 -1.465-3.535z" fill="url(#New_Gradient_Swatch_1-4)"/></g></svg>