<svg id="Layer_1" enable-background="new 0 0 256 256" height="512" viewBox="0 0 256 256" width="512" xmlns="http://www.w3.org/2000/svg"><g><g><g><path d="m175.802 163.183h-95.604c-15.529 0-28.118 12.641-28.118 28.235v22.853 12.58h25.001v25.91h101.837v-25.91h25.001v-12.58-22.853c.001-15.593-12.588-28.235-28.117-28.235z" fill="#4671c6"/></g></g><g><g><path d="m99.32 138.62v26.822.003c0 15.578 12.576 28.206 28.089 28.206 15.506 0 28.089-12.619 28.089-28.209 0-5.426 0-21.214 0-26.822z" fill="#f9cfcf"/></g></g><g><g><path d="m52.08 226.852h25.001v25.91h-25.001z" fill="#f9cfcf"/></g></g><g><g><path d="m178.919 226.852h25.001v25.91h-25.001z" fill="#f9cfcf"/></g></g><g><g><path d="m203.92 254.762h-151.84c-1.104 0-2-.896-2-2v-61.343c0-16.672 13.511-30.235 30.118-30.235h17.122v-22.564c0-1.104.896-2 2-2h56.178c1.104 0 2 .896 2 2v22.563h18.304c16.607 0 30.118 13.563 30.118 30.235v61.343c0 1.105-.896 2.001-2 2.001zm-149.84-4h147.84v-59.343c0-14.466-11.717-26.235-26.118-26.235h-20.304c-1.104 0-2-.896-2-2v-22.564h-52.178v22.563c0 1.104-.896 2-2 2h-19.122c-14.401 0-26.118 11.769-26.118 26.235z" fill="#3762cc"/></g></g><g><g><path d="m77.082 254.762c-1.104 0-2-.896-2-2v-44.789c0-1.104.896-2 2-2s2 .896 2 2v44.789c0 1.104-.896 2-2 2z" fill="#3762cc"/></g></g><g><g><path d="m178.919 254.762c-1.104 0-2-.896-2-2v-44.789c0-1.104.896-2 2-2s2 .896 2 2v44.789c0 1.104-.896 2-2 2z" fill="#3762cc"/></g></g><g><g><path d="m77.082 254.762h-25.002c-1.104 0-2-.896-2-2v-25.909c0-1.104.896-2 2-2h25.001c1.104 0 2 .896 2 2v25.909c.001 1.104-.895 2-1.999 2zm-23.002-4h21.001v-21.909h-21.001z" fill="#3762cc"/></g></g><g><g><path d="m203.92 254.762h-25.001c-1.104 0-2-.896-2-2v-25.909c0-1.104.896-2 2-2h25.001c1.104 0 2 .896 2 2v25.909c0 1.104-.896 2-2 2zm-23.001-4h21.001v-21.909h-21.001z" fill="#3762cc"/></g></g></g><g><g><g><g><path d="m36.08 191.2c-1.104 0-2-.896-2-2 0-18.83 11.975-35.602 29.799-41.733 1.042-.36 2.182.196 2.542 1.24.359 1.044-.196 2.183-1.241 2.542-16.209 5.577-27.1 20.828-27.1 37.951 0 1.105-.896 2-2 2z" fill="#a4c9ff"/></g></g></g><g><g><g><path d="m219.92 191.2c-1.104 0-2-.896-2-2 0-17.455-11.66-33.229-28.354-38.359-1.056-.325-1.649-1.444-1.324-2.5.325-1.055 1.442-1.648 2.499-1.324 18.357 5.642 31.179 22.988 31.179 42.183 0 1.105-.895 2-2 2z" fill="#a4c9ff"/></g></g></g><g><g><g><path d="m210.92 235.487c-1.104 0-2-.896-2-2v-42.287c0-10.498-4.833-20.153-13.26-26.488-.883-.664-1.061-1.917-.397-2.801.664-.883 1.918-1.061 2.8-.397 9.441 7.098 14.856 17.917 14.856 29.685v42.287c.001 1.105-.894 2.001-1.999 2.001z" fill="#a4c9ff"/></g></g></g><g><g><g><path d="m45.08 235.487c-1.104 0-2-.896-2-2v-42.287c0-11.776 5.421-22.601 14.874-29.698.884-.663 2.137-.485 2.8.398.664.883.485 2.137-.398 2.8-8.437 6.334-13.275 15.993-13.275 26.499v42.287c-.001 1.105-.897 2.001-2.001 2.001z" fill="#a4c9ff"/></g></g></g><g><g><path d="m128 143.344c-36.378 0-65.868-29.49-65.868-65.868v-27.589c0-9.144 7.413-16.557 16.557-16.557h115.18v44.146c0 36.378-29.491 65.868-65.869 65.868z" fill="#4671c6"/></g></g><g><g><path d="m128 145.344c-37.423 0-67.869-30.445-67.869-67.868v-27.589c0-10.232 8.325-18.557 18.557-18.557h115.18c1.104 0 2 .896 2 2v44.146c.001 37.422-30.445 67.868-67.868 67.868zm-49.312-110.014c-8.026 0-14.557 6.53-14.557 14.557v27.589c0 35.217 28.651 63.868 63.868 63.868 35.217 0 63.868-28.651 63.868-63.868v-42.146z" fill="#3762cc"/></g></g><g><g><path d="m184.101 81.928v-5.253c0-30.704-25.117-55.595-56.1-55.595-30.983 0-56.1 24.891-56.1 55.595v5.253c-9.741-.198-17.47 7.563-17.47 16.943 0 10.017 8.745 17.94 18.952 16.861 5.79 24.597 28.039 42.922 54.619 42.922 26.582 0 48.829-18.327 54.619-42.922 10.193 1.078 18.952-6.83 18.952-16.861-.002-9.385-7.737-17.14-17.472-16.943z" fill="#f9cfcf"/></g></g><g><g><path d="m128 160.654c-26.575 0-49.427-17.525-56.156-42.829-4.798.071-9.542-1.671-13.141-4.909-3.987-3.588-6.274-8.708-6.274-14.045 0-5.11 2.019-9.902 5.685-13.495 3.208-3.144 7.334-5.017 11.785-5.385v-3.316c.001-31.758 26.065-57.595 58.101-57.595s58.1 25.837 58.1 57.595v3.316c4.451.369 8.577 2.242 11.786 5.386 3.666 3.592 5.685 8.385 5.685 13.494 0 5.338-2.287 10.457-6.273 14.044-3.6 3.238-8.339 4.951-13.142 4.91-6.729 25.304-29.581 42.829-56.156 42.829zm-54.617-46.922c.918 0 1.731.63 1.945 1.542 5.735 24.364 27.394 41.38 52.672 41.38 25.277 0 46.937-17.016 52.671-41.38.231-.98 1.153-1.639 2.157-1.531 4.302.452 8.603-.93 11.793-3.801 3.145-2.83 4.949-6.865 4.949-11.071 0-4.026-1.593-7.803-4.484-10.637-2.92-2.861-6.803-4.381-10.945-4.307-.542.023-1.056-.195-1.44-.571s-.6-.891-.6-1.429v-5.253c0-29.553-24.269-53.595-54.1-53.595s-54.101 24.044-54.101 53.596v5.253c0 .538-.216 1.052-.6 1.429-.384.376-.898.592-1.44.571-4.113-.079-8.025 1.445-10.945 4.306-2.892 2.833-4.484 6.611-4.484 10.638 0 4.206 1.804 8.241 4.95 11.072 3.189 2.87 7.489 4.253 11.792 3.799.07-.008.14-.011.21-.011z" fill="#3762cc"/></g></g><g><g><path d="m193.869 71.145h-88.015c-18.752 0-33.953-15.201-33.953-33.953 0-18.752 15.201-33.953 33.953-33.953h57.611c16.792 0 30.404 13.612 30.404 30.404z" fill="#4671c6"/></g></g><g><g><path d="m193.869 73.145h-88.016c-19.825 0-35.953-16.128-35.953-35.953s16.128-35.954 35.953-35.954h57.611c17.868 0 32.404 14.537 32.404 32.404v37.502c.001 1.105-.895 2.001-1.999 2.001zm-88.016-67.907c-17.619 0-31.953 14.334-31.953 31.953s14.334 31.953 31.953 31.953h86.016v-35.502c0-15.662-12.742-28.404-28.404-28.404z" fill="#3762cc"/></g></g><g><g><ellipse cx="128" cy="131.394" fill="#f9a7a7" rx="13.009" ry="10.808"/></g></g><g><g><g><path d="m151.833 90.081c-1.091 1.249-1.756 2.878-1.756 4.666v7.578c0 3.923 3.181 7.104 7.104 7.104 3.924 0 7.104-3.181 7.104-7.104v-7.234c-5.085-.889-9.326-2.976-12.452-5.01z" fill="#3762cc"/></g></g><g><g><path d="m91.701 95.084v7.241c0 3.923 3.181 7.104 7.104 7.104s7.104-3.181 7.104-7.104v-7.578c0-1.796-.672-3.432-1.771-4.683-3.119 2.035-7.356 4.125-12.437 5.02z" fill="#3762cc"/></g></g><g><g><path d="m169.344 97.539c-14.916 0-24.571-10.554-24.983-11.014-.738-.822-.67-2.086.151-2.824.82-.738 2.083-.67 2.822.149.107.119 9.337 10.136 22.946 9.673 1.128-.023 2.03.828 2.067 1.931.037 1.104-.828 2.029-1.931 2.067-.36.012-.718.018-1.072.018z" fill="#3762cc"/></g></g><g><g><path d="m86.602 97.539c-.355 0-.711-.006-1.072-.018-1.104-.038-1.968-.963-1.931-2.067s.949-1.971 2.067-1.931c13.671.468 22.853-9.57 22.944-9.671.738-.823 2.002-.89 2.824-.151.822.738.89 2.002.151 2.824-.412.46-10.068 11.014-24.983 11.014z" fill="#3762cc"/></g></g></g><g><g><path d="m169.648 155.017c.854-1.794 1.251-3.833 1.028-5.954-.647-6.13-6.14-10.575-12.27-9.928-5.744.606-10.008 5.468-9.99 11.121-.704-.061-1.422-.061-2.151.016-6.13.647-10.575 6.141-9.928 12.27s6.14 10.575 12.27 9.928c1.216-.128 2.361-.454 3.418-.931 2.483 3.336 6.602 5.322 11.038 4.854 6.684-.705 11.53-6.695 10.825-13.379-.343-3.241-1.935-6.043-4.24-7.997z" fill="#e0ebfc"/></g></g><g><g><g><path d="m146.004 147.273c-.62.065-1.264-.137-1.743-.608l-7.726-7.602c-.85-.837-.861-2.204-.024-3.054.836-.85 2.204-.862 3.055-.025l7.726 7.602c.85.837.861 2.204.024 3.054-.366.371-.832.582-1.312.633z" fill="#e0ebfc"/></g></g></g><g><g><g><path d="m136.312 147.4c-.62.065-1.264-.137-1.743-.608l-7.726-7.602c-.85-.837-.861-2.204-.024-3.054.836-.85 2.204-.862 3.055-.025l7.726 7.602c.85.837.861 2.204.024 3.054-.365.371-.831.582-1.312.633z" fill="#e0ebfc"/></g></g></g><g><g><path d="m129.804 210.086 23.087-22.847c1.88-1.86 1.896-4.893.036-6.773l-.033-.034c-1.86-1.88-4.891-1.896-6.771-.036l-23.067 22.827c-.625.618-1.63.622-2.259.008l-.4-.391-.011-.011c-.62-.604-.675-1.583-.127-2.253l16.729-20.44c1.678-2.05 1.38-5.071-.666-6.754l-.034-.028c-2.04-1.679-5.056-1.381-6.73.663l-5.915 7.227-17.093 19.697-3.083 1.238-.52-17.522c-.09-3.046-2.361-5.693-5.394-5.984-3.668-.352-6.696 2.577-6.59 6.141l.269 9.051c.418 14.088-4.416 25.676-4.345 30.234.029 1.844-.583 3.639-1.888 4.942l-23.296 23.252.479.467h42.518l4.304-4.516c2.357-2.473 4.167-1.51 7.707-3.616 15.557-9.254 14.691-8.586 39.949-19.972 2.373-1.07 3.353-3.962 2.031-6.279-1.153-2.02-3.745-2.716-5.865-1.761l-16.561 7.466c-.723.326-1.569-.044-1.821-.797-.191-.573.025-1.203.527-1.538l26.342-17.568c2.091-1.395 2.939-4.169 1.749-6.383-1.365-2.54-4.576-3.301-6.917-1.739l-24.47 16.32c-.625.417-1.462.302-1.952-.268-.509-.589-.474-1.474.081-2.023z" fill="#f9cfcf"/></g></g><g><g><path d="m104.7 254.762h-42.518c-.522 0-1.024-.204-1.397-.569l-.479-.467c-.382-.374-.6-.885-.603-1.42s.208-1.048.587-1.426l23.296-23.252c.86-.859 1.322-2.1 1.301-3.495-.029-1.874.596-4.506 1.387-7.839 1.359-5.724 3.22-13.563 2.959-22.367l-.269-9.051c-.068-2.292.854-4.506 2.528-6.074 1.674-1.566 3.956-2.338 6.252-2.118 3.983.382 7.079 3.785 7.202 7.916l.435 14.638 16.751-19.304 5.877-7.182c1.149-1.403 2.775-2.274 4.58-2.452 1.805-.174 3.568.359 4.968 1.511 2.925 2.406 3.348 6.697.977 9.593l-15.873 19.394 22.053-21.824c1.289-1.276 3.024-2 4.811-1.963 1.813.01 3.514.725 4.79 2.014 2.666 2.695 2.643 7.002-.018 9.635l-19.293 19.093 20.03-13.359c1.595-1.063 3.574-1.405 5.433-.941 1.857.464 3.445 1.702 4.356 3.397 1.64 3.052.585 7.002-2.401 8.994l-19.68 13.125 9.262-4.175c3.096-1.397 6.796-.258 8.423 2.592.904 1.583 1.1 3.48.54 5.205-.561 1.726-1.831 3.144-3.485 3.889l-7.455 3.354c-17.853 8.023-18.549 8.337-32.294 16.513-1.799 1.07-3.227 1.457-4.375 1.767-1.274.345-1.977.534-2.907 1.511l-4.304 4.516c-.377.397-.9.621-1.447.621zm-38.63-4h37.772l3.713-3.896c1.702-1.786 3.256-2.206 4.758-2.612 1.006-.272 2.046-.553 3.374-1.343 13.941-8.293 15.001-8.77 32.7-16.724l7.45-3.352c.638-.288 1.108-.813 1.325-1.479.216-.665.142-1.37-.209-1.985-.615-1.079-2.066-1.486-3.306-.928l-16.562 7.465c-.859.388-1.849.393-2.711.015-.864-.378-1.531-1.108-1.829-2.002-.475-1.423.065-3 1.314-3.834l26.342-17.568c1.29-.86 1.772-2.517 1.097-3.772-.384-.715-1.024-1.216-1.803-1.411-.781-.195-1.577-.057-2.243.389l-24.47 16.32c-1.463.974-3.431.706-4.578-.627-1.188-1.382-1.104-3.469.191-4.751l23.087-22.847c1.093-1.082 1.103-2.852.021-3.945-1.114-1.126-2.883-1.137-3.976-.054l-23.067 22.827c-1.39 1.376-3.661 1.385-5.062.018l-.401-.392c-1.384-1.348-1.503-3.477-.287-4.961l16.728-20.439c.977-1.194.803-2.962-.388-3.942-.608-.5-1.33-.723-2.07-.647-.739.073-1.406.429-1.876 1.004l-5.914 7.226-17.13 19.742c-.208.24-.471.427-.766.545l-3.083 1.238c-.606.244-1.294.176-1.84-.183-.547-.358-.884-.96-.904-1.614l-.521-17.521c-.063-2.121-1.604-3.863-3.585-4.053-1.176-.113-2.289.262-3.136 1.057-.837.784-1.298 1.89-1.264 3.035l.269 9.051c.277 9.332-1.655 17.468-3.065 23.409-.698 2.94-1.301 5.479-1.279 6.853.039 2.489-.84 4.757-2.474 6.388zm63.734-40.676h.01z" fill="#3762cc"/></g></g></g></svg>