<svg height="486pt" viewBox="-13 0 486 486.514" width="486pt" xmlns="http://www.w3.org/2000/svg"><path d="m163.996094 209.152344h.003906c-16.769531 27.328125-26.726562 60.132812-27.175781 95.46875-1.191407 93.148437 66.273437 172.773437 150.851562 177.648437 91.960938 5.296875 168.027344-75.148437 168.027344-175.132812 0-36.292969-10.023437-70.007813-27.191406-97.984375h.003906l-.039063-.066406c0-.003907-.003906-.003907-.003906-.007813l-118.933594-197.070313c-6.304687-10.453124-20.261718-10.453124-26.566406 0l-118.925781 197.058594c-.007813.011719-.015625.027344-.023437.039063zm0 0" fill="#f9a7a7"/><path d="m296.21875 486.515625c-2.917969 0-5.835938-.085937-8.773438-.253906-86.476562-4.980469-155.839843-86.488281-154.621093-181.695313.445312-34.898437 10.039062-68.605468 27.746093-97.472656l.027344-.050781c.035156-.054688.089844-.140625.125-.195313l118.828125-196.90625c3.691407-6.121094 9.9375-9.773437 16.707031-9.773437 6.769532 0 13.015626 3.652343 16.710938 9.773437l118.929688 197.070313c18.203124 29.671875 27.808593 64.28125 27.808593 100.125 0 52.316406-20.742187 101.902343-56.90625 136.042969-29.800781 28.128906-67.359375 43.332031-106.582031 43.335937zm-128.8125-275.273437c-16.964844 27.648437-26.15625 59.957031-26.582031 93.429687-1.164063 90.984375 64.816406 168.863281 147.082031 173.601563 40.152344 2.300781 79.003906-12.214844 109.398438-40.910157 34.574218-32.636719 54.398437-80.101562 54.398437-130.226562 0-34.371094-9.199219-67.53125-26.601563-95.894531-.027343-.042969-.09375-.164063-.121093-.210938l-118.863281-196.960938c-2.265626-3.75-5.859376-5.902343-9.859376-5.902343-4.003906 0-7.597656 2.152343-9.859374 5.902343l-118.921876 197.0625c-.019531.027344-.046874.070313-.070312.109376zm-3.40625-2.09375h.019531zm0 0" fill="#3762cc"/><path d="m325.863281 164.925781c0 11.757813-9.53125 21.292969-21.292969 21.292969-11.757812 0-21.292968-9.535156-21.292968-21.292969 0-11.761719 9.535156-21.296875 21.292968-21.296875 11.761719 0 21.292969 9.535156 21.292969 21.296875zm0 0" fill="#6bdddd"/><path d="m46.84375 164.925781c0 11.757813-9.53125 21.292969-21.292969 21.292969s-21.292969-9.535156-21.292969-21.292969c0-11.761719 9.53125-21.296875 21.292969-21.296875s21.292969 9.535156 21.292969 21.296875zm0 0" fill="#6bdddd"/><path d="m186.476562 25.292969c0 11.761719-9.535156 21.296875-21.296874 21.296875-11.757813 0-21.292969-9.535156-21.292969-21.296875 0-11.757813 9.535156-21.292969 21.292969-21.292969 11.761718 0 21.296874 9.535156 21.296874 21.292969zm0 0" fill="#6bdddd"/><path d="m186.476562 304.554688c0 11.757812-9.535156 21.292968-21.296874 21.292968-11.757813 0-21.292969-9.535156-21.292969-21.292968 0-11.761719 9.535156-21.292969 21.292969-21.292969 11.761718 0 21.296874 9.53125 21.296874 21.292969zm0 0" fill="#6bdddd"/><path d="m264.921875 164.925781c0 55.085938-44.65625 99.738281-99.742187 99.738281-55.085938 0-99.742188-44.652343-99.742188-99.738281 0-55.085937 44.65625-99.742187 99.742188-99.742187 55.085937 0 99.742187 44.65625 99.742187 99.742187zm0 0" fill="#ffea92"/><path d="m243.921875 164.925781c0 43.484375-35.253906 78.738281-78.742187 78.738281-43.484376 0-78.738282-35.253906-78.738282-78.738281 0-43.488281 35.253906-78.742187 78.738282-78.742187 43.488281 0 78.742187 35.253906 78.742187 78.742187zm0 0" fill="#a4c9ff"/><path d="m87.742188 66.191406c0 11.757813-9.535157 21.292969-21.296876 21.292969-11.757812 0-21.292968-9.535156-21.292968-21.292969 0-11.761718 9.535156-21.296875 21.292968-21.296875 11.761719 0 21.296876 9.535157 21.296876 21.296875zm0 0" fill="#6bdddd"/><path d="m285.210938 263.65625c0 11.761719-9.535157 21.296875-21.296876 21.296875-11.757812 0-21.292968-9.535156-21.292968-21.296875 0-11.757812 9.535156-21.292969 21.292968-21.292969 11.761719 0 21.296876 9.535157 21.296876 21.292969zm0 0" fill="#6bdddd"/><path d="m285.210938 66.191406c0 11.757813-9.535157 21.292969-21.296876 21.292969-11.757812 0-21.292968-9.535156-21.292968-21.292969 0-11.761718 9.535156-21.296875 21.292968-21.296875 11.761719 0 21.296876 9.535157 21.296876 21.296875zm0 0" fill="#6bdddd"/><path d="m87.742188 263.65625c0 11.761719-9.535157 21.296875-21.296876 21.296875-11.757812 0-21.292968-9.535156-21.292968-21.296875 0-11.757812 9.535156-21.292969 21.292968-21.292969 11.761719 0 21.296876 9.535157 21.296876 21.292969zm0 0" fill="#6bdddd"/><path d="m65.816406 156.519531h-20.703125c1.113281 2.578125 1.730469 5.417969 1.730469 8.40625 0 2.667969-.511719 5.210938-1.40625 7.5625h20.316406c-.1875-2.5-.3125-5.015625-.3125-7.5625-.003906-2.835937.144532-5.632812.375-8.40625zm0 0" fill="#a4c9ff"/><path d="m165.179688 46.589844c-2.984376 0-5.824219-.621094-8.402344-1.730469v20.699219c2.773437-.230469 5.570312-.375 8.402344-.375 2.550781 0 5.066406.125 7.566406.3125v-20.316406c-2.351563.894531-4.894532 1.410156-7.566406 1.410156zm0 0" fill="#a4c9ff"/><path d="m165.179688 283.261719c2.667968 0 5.214843.511719 7.566406 1.40625v-20.316407c-2.5.1875-5.015625.3125-7.566406.3125-2.832032 0-5.628907-.144531-8.402344-.375v20.699219c2.578125-1.109375 5.417968-1.726562 8.402344-1.726562zm0 0" fill="#a4c9ff"/><path d="m85.859375 74.902344c-1.03125 2.296875-2.464844 4.457031-4.355469 6.34375-2.109375 2.113281-4.554687 3.683594-7.164062 4.71875l14.636718 14.636718c3.441407-4.074218 7.203126-7.859374 11.25-11.332031zm0 0" fill="#a4c9ff"/><path d="m248.855469 248.601562c1.890625-1.890624 4.050781-3.324218 6.347656-4.355468l-14.367187-14.367188c-3.476563 4.046875-7.261719 7.808594-11.335938 11.25l14.636719 14.636719c1.039062-2.609375 2.609375-5.054687 4.71875-7.164063zm0 0" fill="#a4c9ff"/><path d="m248.855469 81.246094c-1.886719-1.886719-3.324219-4.046875-4.351563-6.34375l-14.367187 14.367187c4.042969 3.472657 7.808593 7.257813 11.25 11.332031l14.632812-14.636718c-2.605469-1.035156-5.050781-2.605469-7.164062-4.71875zm0 0" fill="#a4c9ff"/><path d="m81.503906 248.601562c2.113282 2.109376 3.679688 4.554688 4.722656 7.164063l14.632813-14.636719c-4.074219-3.441406-7.859375-7.203125-11.335937-11.25l-14.367188 14.367188c2.300781 1.03125 4.460938 2.46875 6.347656 4.355468zm0 0" fill="#a4c9ff"/><path d="m264.589844 172.90625h20.703125c-1.109375-2.578125-1.730469-5.417969-1.730469-8.402344 0-2.667968.511719-5.210937 1.410156-7.566406h-20.320312c.1875 2.5.316406 5.015625.316406 7.566406 0 2.835938-.144531 5.628906-.378906 8.402344zm0 0" fill="#a4c9ff"/><path d="m181.152344 222.296875h-31.941406c-7.839844 0-14.195313-6.355469-14.195313-14.195313v-89.3125c0-7.839843 6.355469-14.195312 14.195313-14.195312h31.941406c7.839844 0 14.195312 6.355469 14.195312 14.195312v89.316407c0 7.839843-6.355468 14.191406-14.195312 14.191406zm0 0" fill="#4671c6"/><path d="m149.804688 195.132812c-2.800782 0-5.070313-2.269531-5.070313-5.070312 0-7.320312 2.367187-11.265625 4.273437-14.441406 1.640626-2.734375 2.828126-4.710938 2.828126-9.222656 0-4.511719-1.1875-6.488282-2.828126-9.222657-1.902343-3.175781-4.273437-7.125-4.273437-14.445312 0-7.316407 2.371094-11.261719 4.273437-14.429688 1.640626-2.734375 2.828126-4.707031 2.828126-9.214843 0-2.800782 2.269531-5.070313 5.070312-5.070313 2.796875 0 5.070312 2.269531 5.070312 5.070313 0 7.316406-2.371093 11.261718-4.273437 14.433593-1.640625 2.734375-2.824219 4.707031-2.824219 9.214844 0 4.511719 1.183594 6.488281 2.824219 9.222656 1.902344 3.175781 4.273437 7.121094 4.273437 14.441407 0 7.320312-2.371093 11.269531-4.273437 14.445312-1.640625 2.734375-2.824219 4.710938-2.824219 9.21875-.003906 2.800781-2.273437 5.070312-5.074218 5.070312zm0 0" fill="#e0ebfc"/><path d="m172.621094 212.878906c-2.800782 0-5.070313-2.269531-5.070313-5.070312 0-7.320313 2.367188-11.265625 4.273438-14.441406 1.640625-2.734376 2.828125-4.710938 2.828125-9.222657s-1.1875-6.488281-2.828125-9.222656c-1.902344-3.175781-4.273438-7.125-4.273438-14.445313 0-7.316406 2.371094-11.261718 4.273438-14.429687 1.640625-2.734375 2.828125-4.707031 2.828125-9.21875 0-2.796875 2.269531-5.066406 5.070312-5.066406 2.796875 0 5.066406 2.269531 5.066406 5.066406 0 7.320313-2.367187 11.265625-4.269531 14.4375-1.640625 2.734375-2.828125 4.707031-2.828125 9.214844 0 4.511719 1.1875 6.488281 2.828125 9.222656 1.902344 3.175781 4.273438 7.121094 4.273438 14.441406 0 7.320313-2.371094 11.269531-4.273438 14.445313-1.640625 2.734375-2.828125 4.707031-2.828125 9.21875 0 2.800781-2.269531 5.070312-5.070312 5.070312zm0 0" fill="#e0ebfc"/><g fill="#3762cc"><path d="m165.179688 268.664062c-57.203126 0-103.742188-46.539062-103.742188-103.738281 0-57.203125 46.539062-103.742187 103.742188-103.742187 57.207031 0 103.746093 46.539062 103.746093 103.742187 0 57.199219-46.539062 103.738281-103.746093 103.738281zm0-199.480468c-52.789063 0-95.742188 42.949218-95.742188 95.742187 0 52.789063 42.953125 95.738281 95.742188 95.738281 52.792968 0 95.746093-42.949218 95.746093-95.738281 0-52.792969-42.953125-95.742187-95.746093-95.742187zm0 0"/><path d="m304.570312 190.214844c-9.417968 0-17.890624-5.140625-22.265624-13.304688h-17.714844c-1.117188 0-2.183594-.46875-2.941406-1.292968-.757813-.824219-1.136719-1.925782-1.042969-3.042969.246093-2.945313.367187-5.585938.367187-8.070313 0-2.207031-.097656-4.515625-.304687-7.269531-.085938-1.109375.296875-2.203125 1.054687-3.019531.757813-.816406 1.820313-1.28125 2.933594-1.28125h17.648438c4.375-8.164063 12.84375-13.308594 22.265624-13.308594 13.949219 0 25.292969 11.347656 25.292969 25.296875s-11.347656 25.292969-25.292969 25.292969zm-35.707031-21.304688h15.976563c1.628906 0 3.09375.988282 3.707031 2.496094 2.664063 6.566406 8.953125 10.808594 16.023437 10.808594 9.535157 0 17.292969-7.753906 17.292969-17.289063 0-9.539062-7.757812-17.296875-17.292969-17.296875-7.074218 0-13.363281 4.242188-16.023437 10.808594-.613281 1.511719-2.078125 2.5-3.707031 2.5h-15.941406c.046874 1.234375.074218 2.410156.074218 3.566406-.003906 1.421875-.039062 2.878906-.109375 4.40625zm0 0"/><path d="m156.777344 69.558594c-1 0-1.964844-.375-2.707032-1.054688-.824218-.757812-1.292968-1.824218-1.292968-2.945312v-18.222656c-7.910156-4.449219-12.890625-12.832032-12.890625-22.042969 0-13.945313 11.347656-25.292969 25.292969-25.292969 13.949218 0 25.296874 11.347656 25.296874 25.292969 0 9.46875-5.414062 18.175781-13.730468 22.46875v17.730469c0 1.117187-.464844 2.179687-1.277344 2.933593-.816406.761719-1.917969 1.136719-3.023438 1.054688-2.757812-.207031-5.066406-.300781-7.265624-.300781-2.5 0-5.140626.121093-8.070313.367187-.109375.007813-.21875.011719-.332031.011719zm8.402344-61.558594c-9.535157 0-17.289063 7.757812-17.289063 17.292969 0 6.917969 4.109375 13.152343 10.46875 15.890625 1.46875.628906 2.417969 2.074218 2.417969 3.671875v16.429687c2.75-.125 5.207031-.140625 7.972656-.03125v-15.699218c-.167969-1.75.84375-3.457032 2.5625-4.113282 6.675781-2.539062 11.164062-9.03125 11.164062-16.152344 0-9.53125-7.757812-17.289062-17.296874-17.289062zm0 0"/><path d="m165.179688 329.851562c-13.945313 0-25.289063-11.347656-25.289063-25.296874 0-9.207032 4.976563-17.59375 12.886719-22.039063v-18.222656c0-1.121094.46875-2.1875 1.292968-2.945313.824219-.757812 1.929688-1.152344 3.039063-1.042968 2.925781.242187 5.566406.363281 8.074219.363281 2.183594 0 4.5625-.097657 7.265625-.300781 1.105469-.09375 2.207031.296874 3.023437 1.058593.8125.753907 1.277344 1.816407 1.277344 2.929688v17.734375c8.3125 4.289062 13.730469 12.996094 13.730469 22.46875-.003907 13.945312-11.351563 25.292968-25.300781 25.292968zm-4.402344-61.292968v16.429687c0 1.601563-.953125 3.042969-2.421875 3.675781-6.359375 2.734376-10.46875 8.972657-10.46875 15.890626 0 9.539062 7.757812 17.292968 17.292969 17.292968 9.535156 0 17.292968-7.757812 17.292968-17.292968 0-7.125-4.484375-13.617188-11.164062-16.152344-1.71875-.648438-2.726563-2.363282-2.5625-4.113282v-15.699218c-2.789063.109375-5.238282.09375-7.96875-.03125zm0 0"/><path d="m88.976562 104.601562c-1.058593 0-2.078124-.417968-2.828124-1.171874l-12.882813-12.882813c-8.738281 2.457031-18.1875.046875-24.703125-6.46875-9.859375-9.863281-9.859375-25.910156 0-35.773437 4.777344-4.777344 11.128906-7.410157 17.882812-7.410157 6.757813 0 13.109376 2.632813 17.886719 7.410157 6.695313 6.699218 9.023438 16.683593 6.183594 25.597656l12.539063 12.539062c.785156.785156 1.207031 1.867188 1.167968 2.976563-.042968 1.113281-.546875 2.15625-1.390625 2.882812-3.898437 3.351563-7.53125 7.011719-10.804687 10.882813-.71875.855468-1.769532 1.367187-2.886719 1.414062-.054687.003906-.109375.003906-.164063.003906zm-14.636718-22.636718c1.042968 0 2.066406.40625 2.832031 1.171875l11.625 11.625c1.789063-1.949219 3.667969-3.835938 5.613281-5.652344l-11.1875-11.195313c-1.246094-1.089843-1.714844-2.871093-1.085937-4.46875.03125-.078124.0625-.15625.097656-.230468 2.886719-6.503906 1.464844-14.234375-3.554687-19.253906-3.265626-3.265626-7.609376-5.066407-12.230469-5.066407-4.617188 0-8.960938 1.800781-12.226563 5.066407-6.742187 6.742187-6.742187 17.714843 0 24.460937 4.890625 4.890625 12.210938 6.394531 18.640625 3.832031.476563-.195312.976563-.289062 1.476563-.289062zm0 0"/><path d="m263.914062 288.941406c-6.476562 0-12.953124-2.464844-17.882812-7.398437-6.515625-6.511719-8.921875-15.960938-6.472656-24.699219l-12.882813-12.886719c-.789062-.792969-1.210937-1.878906-1.164062-2.996093.046875-1.117188.558593-2.164063 1.414062-2.886719 3.878907-3.273438 7.539063-6.90625 10.882813-10.796875.726562-.847656 1.769531-1.351563 2.882812-1.394532 1.117188-.054687 2.191406.382813 2.980469 1.171876l12.542969 12.539062c8.917968-2.839844 18.898437-.515625 25.59375 6.183594 9.859375 9.863281 9.859375 25.910156 0 35.769531-4.941406 4.925781-11.417969 7.394531-17.894532 7.394531zm-28.570312-47.628906 11.625 11.625c1.128906 1.128906 1.476562 2.824219.886719 4.308594-2.566407 6.433594-1.058594 13.75 3.832031 18.640625 6.742188 6.742187 17.714844 6.742187 24.457031 0 6.742188-6.742188 6.742188-17.714844 0-24.457031-5.039062-5.042969-12.800781-6.457032-19.320312-3.527344-1.683594.761718-3.644531.257812-4.765625-1.152344l-11.058594-11.054688c-1.820312 1.945313-3.707031 3.824219-5.65625 5.617188zm0 0"/><path d="m25.550781 190.214844c-13.949219 0-25.292969-11.34375-25.292969-25.289063 0-13.949219 11.34375-25.296875 25.292969-25.296875 9.210938 0 17.59375 4.980469 22.042969 12.890625h18.222656c1.121094 0 2.1875.46875 2.945313 1.292969.757812.824219 1.136719 1.925781 1.042969 3.042969-.246094 2.941406-.367188 5.585937-.367188 8.074219 0 2.203124.09375 4.511718.304688 7.261718.082031 1.109375-.300782 2.207032-1.058594 3.023438-.757813.816406-1.820313 1.277344-2.929688 1.277344h-17.734375c-4.292969 8.308593-13 13.722656-22.46875 13.722656zm0-42.585938c-9.535156 0-17.292969 7.757813-17.292969 17.296875 0 9.535157 7.757813 17.289063 17.292969 17.289063 7.117188 0 13.605469-4.480469 16.144531-11.148438.589844-1.550781 2.078126-2.578125 3.738282-2.578125h16.078125c-.046875-1.242187-.074219-2.425781-.074219-3.5625 0-1.421875.039062-2.882812.109375-4.40625h-16.433594c-1.597656 0-3.039062-.953125-3.671875-2.417969-2.738281-6.363281-8.972656-10.472656-15.890625-10.472656zm0 0"/><path d="m241.386719 104.601562c-.054688 0-.113281 0-.167969-.003906-1.117188-.046875-2.164062-.558594-2.886719-1.414062-3.269531-3.875-6.90625-7.535156-10.804687-10.882813-.84375-.726562-1.347656-1.769531-1.386719-2.882812-.042969-1.113281.378906-2.191407 1.167969-2.976563l12.535156-12.539062c-2.839844-8.914063-.511719-18.898438 6.183594-25.597656 4.777344-4.777344 11.128906-7.410157 17.886718-7.410157 6.753907 0 13.105469 2.632813 17.882813 7.410157 9.859375 9.863281 9.859375 25.910156 0 35.773437-6.515625 6.515625-15.964844 8.925781-24.703125 6.46875l-12.882812 12.882813c-.746094.753906-1.765626 1.171874-2.824219 1.171874zm-5.433594-15.492187c1.949219 1.816406 3.824219 3.707031 5.617187 5.652344l11.625-11.625c1.128907-1.128907 2.828126-1.476563 4.308594-.882813 6.4375 2.5625 13.75 1.054688 18.640625-3.832031 6.742188-6.746094 6.742188-17.71875 0-24.460937-3.265625-3.265626-7.609375-5.066407-12.226562-5.066407-4.621094 0-8.964844 1.800781-12.230469 5.066407-5.019531 5.019531-6.445312 12.75-3.554688 19.253906.035157.078125.070313.15625.101563.234375.625 1.59375.15625 3.378906-1.085937 4.464843zm0 0"/><path d="m66.445312 288.941406c-6.476562 0-12.953124-2.464844-17.882812-7.398437-9.863281-9.859375-9.863281-25.90625 0-35.769531 6.695312-6.699219 16.675781-9.027344 25.59375-6.183594l12.539062-12.539063c.789063-.789062 1.871094-1.203125 2.980469-1.171875 1.113281.042969 2.160157.546875 2.882813 1.394532 3.347656 3.890624 7.007812 7.527343 10.882812 10.796874.855469.722657 1.367188 1.769532 1.414063 2.886719.050781 1.117188-.375 2.207031-1.164063 2.996094l-12.882812 12.886719c2.449218 8.734375.039062 18.1875-6.472656 24.699218-4.933594 4.933594-11.414063 7.398438-17.890626 7.402344zm.019532-42.546875c-4.503906 0-8.957032 1.746094-12.246094 5.035157-6.742188 6.742187-6.742188 17.714843 0 24.457031 6.746094 6.746093 17.714844 6.742187 24.457031 0 4.890625-4.890625 6.398438-12.207031 3.832031-18.640625-.589843-1.480469-.242187-3.175782.886719-4.304688l11.625-11.628906c-1.949219-1.792969-3.839843-3.667969-5.65625-5.617188l-11.050781 11.050782c-1.125 1.414062-3.082031 1.917968-4.773438 1.160156-2.261718-1.019531-4.675781-1.511719-7.074218-1.511719zm0 0"/></g></svg>