<svg height="512" viewBox="0 0 512 512" width="512" xmlns="http://www.w3.org/2000/svg"><g id="Sneeze"><g id="Filled"><path d="m207.988 120v70.57l-26 33.43 26 16 5.93 19.76c18.082-11.76 28.026-13.487 34.082-11.76 10.7 3.053 13.878 23.632 0 32l-24.362 12.17a30.44 30.44 0 0 0 36.538 20.783l35.812-8.953v40s-10.6 11.923-23.166 31.992c63.79-.344 135.166-39.992 135.166-39.992v-216z" fill="#ffdfc5"/><path d="m408 188.771a232.787 232.787 0 0 1 -112 122.639v32.59s-10.6 11.923-23.166 31.992c63.79-.344 135.166-39.992 135.166-39.992z" fill="#ffd5c7"/><path d="m272.834 375.992c-47.497 75.837-40.02 132.15-40.834 136.008h232v-8c0-56-8-104-56-168 0 0-71.376 39.648-135.166 39.992z" fill="#96e0d7"/><path d="m437.355 382.064a208.211 208.211 0 0 1 -204.538 104.7c-1.138 12.33-.734 19.71-.817 25.233h232c-1.153-22.533 4.135-70.512-26.645-129.933z" fill="#97d0dd"/><path d="m368 392a48 48 0 0 0 -48 48v72h96v-72a48 48 0 0 0 -48-48z" fill="#afefde"/><circle cx="360" cy="432" fill="#d5f7ed" r="16"/><circle cx="384" cy="456" fill="#d5f7ed" r="8"/><path d="m168.187 30.567s-8 112 77.3 113.433h74.5c13.777-1.433 24 6.567 24 20.456 0 42.111.1 106.111 64 130.111 100.684-128.327 83.667-254.725 22.89-256.941-30.889-71.059-169.877 8.031-231.917 8.031-23.26 0-30.773-15.09-30.773-15.09z" fill="#68676b"/><path d="m454.44 46.16a220.049 220.049 0 0 1 -108.22 164.247c4.6 33.591 18.673 67.973 61.768 84.16 85.998-109.609 86.117-217.794 46.452-248.407z" fill="#58575b"/><circle cx="355.988" cy="52" fill="#8a8a8c" r="28"/><circle cx="403.988" cy="84" fill="#8a8a8c" r="12"/><path d="m343.928 182.567h-15.928v48h23.928c22.091 0 32-17.908 32-40 0-40-40-40-40-8z" fill="#ffdfc5"/><path d="m367.05 160.182a76.1 76.1 0 0 1 -26.594 70.385h11.472c22.091 0 32-17.908 32-40 0-17.911-8.021-27.795-16.878-30.385z" fill="#ffd5c7"/></g><g id="Outline"><path d="m351.928 222.567c-10.578 0-10.591 16 0 16 52.767 0 50.714-87.083 10.33-87.083-26.125 0-34.351 39.083-18.33 39.083a8 8 0 0 0 8-8c0-21.932 24-20.605 24 8 0 9.622-2.339 32-24 32z"/><path d="m367.928 384a56.063 56.063 0 0 0 -56 56v64c0 10.576 16 10.592 16 0v-64a40 40 0 0 1 80 0v64c0 10.576 16 10.592 16 0v-64a56.063 56.063 0 0 0 -56-56z"/><path d="m481.858 165.527c9.357-39.777 7.954-75.806-3.952-101.452-9.144-19.7-23.885-31.621-41.853-34.024-17.63-33.144-57-33.26-93.884-26.51-10.4 1.9-7.538 17.653 2.881 15.738 81.679-14.95 71.42 25.834 85.489 26.346 17.792.646 27.687 14.053 32.855 25.186 10.252 22.086 11.305 55.273 2.889 91.052-9.592 40.774-30.626 83.191-60.958 123.009-13.782-6.064-24.562-14.49-32.843-25.641-6.3-8.492-19.16 1.032-12.845 9.538 10.046 13.53 23.589 23.994 40.291 31.181v31.231c-14.3 7.364-63.585 31.165-111.646 35.965 20.949-30 14.72-6.7 15.646-63.146a8 8 0 0 0 -9.941-7.761l-35.811 8.953a22.411 22.411 0 0 1 -24.119-9.314c5.186-4.038 34.49-9.358 30.887-36.418-2.374-17.836-17.335-27.931-46.388-11.878l-2.966-9.882c-1.482-4.94-5.34-5.008-21.867-15.835 28.452-39.814 21.407-11.4 22.2-75.235 24.99 9.536 46.7 3.291 104 5.37 10.578 0 10.591-16 0-16h-74.123c-1.412-.994-63.86 6.718-69.525-87.478 22.575 11.735 55.645 1.663 107.931-13.7 10.154-2.979 5.661-18.328-4.5-15.354-43.7 12.847-92.141 29.092-104.422 7.487-3.358-7.228-14.51-5.427-15.116 3.05-2.613 36.35 8.11 85.631 39.768 108.088v49.737c-34.522 46.458-35.818 33.027 1.213 57.392 4.951 13.8 3.843 19.812 9.964 22.054a8 8 0 0 0 7.115-.805c17.967-11.685 25.234-11.424 27.526-10.773 3.685 1.052 6.066 12.374-1.7 17.31l-24.054 12.005c-14.2 7.093 9.443 43.85 42.054 35.7l25.871-6.468v26.806c-34.878 41.873-64 104.344-64 162.948 0 10.576 16 10.592 16 0 0-48 20.13-91.528 37.447-120.094 53.454-1.729 109.661-28.142 128.2-37.617 75.964 104.812 34.853 165.712 58.356 165.712a8 8 0 0 0 8-8c0-58.6-9.422-107.735-56-170.653v-36.025c32.822-42.384 55.604-87.901 65.93-131.795z"/><path d="m311.94 24c10.577 0 10.592-16 0-16s-10.592 16 0 16z"/><path d="m183.94 256h-80c-10.578 0-10.591 16 0 16h80c10.579 0 10.592-16 0-16z"/><path d="m183.94 288h-104c-10.578 0-10.591 16 0 16h104c10.579 0 10.592-16 0-16z"/><path d="m108.734 323.994c-12.6 21.788-45.612 11.683-44.78-12.507-.032-.1.387-6.6-6-8.238-23.932-6.139-23.941-40.356 0-46.5 3.486-.895 5.986-3.666 5.986-8.751 0-24.357 32.468-33.27 44.785-11.993a8 8 0 0 0 10.931 2.917c13.272-7.68-9.167-30.922-31.716-30.922a40.058 40.058 0 0 0 -39.713 35.2c-32.331 13.772-32.308 59.835 0 73.6 4.551 37.9 55.105 48.487 74.357 15.208 5.296-9.158-8.549-17.183-13.85-8.014z"/></g></g></svg>