<svg height="512" viewBox="0 0 512 512" width="512" xmlns="http://www.w3.org/2000/svg"><g id="Flat"><path d="m128 184h232a80 80 0 0 1 80 80v80h-72v144h-224v-176l-59.94 20.711a42.481 42.481 0 0 1 -55.574-19.675 42.481 42.481 0 0 1 7.957-49.036z" fill="#348ed8"/><rect fill="#fdb683" height="48" rx="24" width="240" x="136" y="104"/><path d="m256 264a88 88 0 0 1 -88-88v-72a64 64 0 0 1 64-64h48a64 64 0 0 1 64 64v72a88 88 0 0 1 -88 88z" fill="#fdc8a2"/><path d="m208 40a40 40 0 0 0 -40 40v24l5.7-3.42a70.647 70.647 0 0 0 34.3-60.58z" fill="#804a32"/><path d="m344 120-32-48h-120a24 24 0 0 1 -24-24 24 24 0 0 1 24-24h88a64 64 0 0 1 64 64z" fill="#91563a"/><path d="m360 304h16v40h-16z" fill="#2d7dbe"/><path d="m296 158.855a63.705 63.705 0 0 1 -27.475-6.035l6.95-14.412c12.277 5.919 28.773 5.919 41.05 0l6.95 14.412a63.705 63.705 0 0 1 -27.475 6.035z" fill="#91563a"/><path d="m216 158.855a63.705 63.705 0 0 1 -27.475-6.035l6.95-14.412c12.277 5.919 28.773 5.919 41.05 0l6.95 14.412a63.705 63.705 0 0 1 -27.475 6.035z" fill="#91563a"/><path d="m283.413 216.64a47.962 47.962 0 0 0 -54.826 0l-9.174-13.109a64.015 64.015 0 0 1 73.174 0z" fill="#fcb079"/><path d="m254.627 98.893-23.849-32.818a19.314 19.314 0 0 0 -26.978-4.27l-39.289 28.552 3.613-22.829a16.886 16.886 0 0 0 -32.964-7.106l-15.16 59.578-89.409 149.015a46.249 46.249 0 0 0 -6.591 23.796v1.852a46.252 46.252 0 0 0 31.626 43.879 46.251 46.251 0 0 0 57.138-25.659l55.236-128.883 82.357-58.129a19.312 19.312 0 0 0 4.27-26.978z" fill="#ffd4b5"/><path d="m256 307.436a150.264 150.264 0 0 1 -59.151-12.083l6.3-14.706a134.758 134.758 0 0 0 105.7 0l6.3 14.706a150.264 150.264 0 0 1 -59.149 12.083z" fill="#2d7dbe"/><path d="m368 344h72v144h-72z" fill="#fdc8a2"/><g fill="#85ccd5"><path d="m423.155 123.578-14.31-7.156 13.421-26.842-11.923-11.923a8 8 0 0 1 -1.5-9.235l16-32 14.31 7.156-13.419 26.842 11.923 11.923a8 8 0 0 1 1.5 9.235z"/><path d="m453.446 195.166-10.892-11.721 21.984-20.43-6.982-15.348a8 8 0 0 1 1.835-9.173l26.209-24.354 10.892 11.72-21.983 20.43 6.982 15.347a8 8 0 0 1 -1.835 9.174z"/></g></g></svg>