<svg id="Layer_1" enable-background="new 0 0 256 256" height="512" viewBox="0 0 256 256" width="512" xmlns="http://www.w3.org/2000/svg"><g><g><g><path d="m175.893 163.149h-19.777c0-15.429 0-25.88 0-43.419h-56.286v43.419h-19.723c-15.559 0-28.172 12.613-28.172 28.172v61.68h152.13c0-8.774 0-52.81 0-61.68 0-15.559-12.613-28.172-28.172-28.172z" fill="#f9cfcf"/></g></g><g><g><path d="m75.593 254.696c-1.104 0-2-.896-2-2v-46.958c0-1.104.896-2 2-2s2 .896 2 2v46.958c0 1.104-.896 2-2 2z" fill="#3762cc"/></g></g><g><g><path d="m180.393 254.696c-1.104 0-2-.896-2-2v-46.958c0-1.104.896-2 2-2s2 .896 2 2v46.958c0 1.104-.895 2-2 2z" fill="#3762cc"/></g></g><g><g><path d="m204.065 255h-152.13c-1.104 0-2-.896-2-2v-61.68c0-16.637 13.535-30.172 30.172-30.172h17.723v-41.419c0-1.104.896-2 2-2h56.285c1.104 0 2 .896 2 2v41.419h17.777c16.637 0 30.172 13.535 30.172 30.172v61.68c.001 1.104-.895 2-1.999 2zm-150.13-4h148.13v-59.68c0-14.431-11.741-26.172-26.172-26.172h-19.777c-1.104 0-2-.896-2-2v-41.419h-52.286v41.419c0 1.104-.896 2-2 2h-19.723c-14.432 0-26.172 11.741-26.172 26.172z" fill="#3762cc"/></g></g><g><g><path d="m128 143.373c-36.448 0-65.994-29.547-65.994-65.994v-27.641c0-9.161 7.427-16.588 16.588-16.588h115.4v44.23c0 36.447-29.546 65.993-65.994 65.993z" fill="#4671c6"/></g></g><g><g><path d="m128 145.373c-37.492 0-67.994-30.502-67.994-67.994v-27.641c0-10.25 8.339-18.588 18.588-18.588h115.4c1.104 0 2 .896 2 2v44.23c0 37.491-30.502 67.993-67.994 67.993zm-49.406-110.224c-8.044 0-14.588 6.544-14.588 14.588v27.642c0 35.286 28.708 63.994 63.994 63.994s63.994-28.708 63.994-63.994v-42.23z" fill="#3762cc"/></g></g><g><g><path d="m184.207 81.84v-5.263c0-30.763-25.165-55.701-56.207-55.701-31.043 0-56.207 24.938-56.207 55.701v5.263c-9.76-.198-17.503 7.577-17.503 16.976 0 10.036 8.761 17.974 18.988 16.893 5.801 24.644 28.092 43.004 54.723 43.004 26.633 0 48.923-18.362 54.723-43.004 10.213 1.08 18.988-6.843 18.988-16.893-.001-9.403-7.751-17.174-17.505-16.976z" fill="#f9cfcf"/></g></g><g><g><path d="m115.812 131.871c-.509 0-1.019-.193-1.409-.58-.784-.778-.789-2.044-.011-2.829 3.041-3.066 7.699-5.224 13.601-5.224 5.896 0 10.568 2.167 13.601 5.224.778.784.773 2.051-.011 2.829-.785.777-2.051.773-2.829-.011-2.298-2.316-5.939-4.041-10.761-4.041-4.814 0-8.465 1.727-10.761 4.041-.391.393-.906.591-1.42.591z" fill="#3762cc"/></g></g><g><g><path d="m128 160.713c-26.624 0-49.519-17.56-56.26-42.91-4.854.066-9.561-1.673-13.165-4.917-3.995-3.595-6.286-8.723-6.286-14.07 0-5.119 2.022-9.919 5.695-13.518 3.214-3.149 7.349-5.026 11.808-5.394v-3.327c0-31.816 26.112-57.701 58.208-57.701s58.208 25.885 58.208 57.701v3.327c4.459.368 8.593 2.245 11.808 5.395 3.672 3.599 5.695 8.399 5.695 13.518 0 5.348-2.291 10.475-6.284 14.069-3.606 3.245-8.349 4.997-13.167 4.918-6.741 25.349-29.637 42.909-56.26 42.909zm-54.721-47.005c.918 0 1.731.631 1.945 1.542 5.746 24.413 27.448 41.462 52.776 41.462 25.327 0 47.03-17.05 52.776-41.462.231-.98 1.152-1.639 2.157-1.531 4.313.458 8.621-.932 11.818-3.809 3.152-2.836 4.959-6.88 4.959-11.095 0-4.035-1.596-7.82-4.494-10.66-2.926-2.868-6.832-4.395-10.968-4.316-.533.019-1.056-.194-1.44-.571-.384-.376-.6-.891-.6-1.429v-5.263c0-29.611-24.317-53.701-54.208-53.701s-54.208 24.09-54.208 53.701v5.263c0 .538-.216 1.052-.6 1.429-.384.376-.906.587-1.44.571-4.173-.084-8.042 1.448-10.968 4.315-2.898 2.84-4.495 6.626-4.495 10.661 0 4.215 1.809 8.26 4.961 11.097 3.196 2.876 7.509 4.263 11.816 3.807.072-.007.143-.011.213-.011z" fill="#3762cc"/></g></g><g><g><path d="m193.994 71.036h-88.183c-18.788 0-34.018-15.23-34.018-34.018 0-18.788 15.23-34.018 34.018-34.018h57.721c16.824 0 30.462 13.638 30.462 30.462z" fill="#4671c6"/></g></g><g><g><path d="m193.994 73.036h-88.184c-19.86 0-36.018-16.158-36.018-36.018s16.158-36.018 36.019-36.018h57.721c17.9 0 32.462 14.563 32.462 32.462v37.574c0 1.105-.895 2-2 2zm-88.183-68.036c-17.655 0-32.019 14.363-32.019 32.018s14.363 32.018 32.018 32.018h86.184v-35.574c0-15.694-12.768-28.462-28.462-28.462z" fill="#3762cc"/></g></g><g><g><g><path d="m151.833 90.319c-1.091 1.249-1.756 2.878-1.756 4.666v7.578c0 3.923 3.181 7.104 7.104 7.104 3.924 0 7.104-3.181 7.104-7.104v-7.234c-5.085-.889-9.326-2.976-12.452-5.01z" fill="#3762cc"/></g></g><g><g><path d="m91.701 95.322v7.241c0 3.923 3.181 7.104 7.104 7.104s7.104-3.181 7.104-7.104v-7.578c0-1.796-.672-3.432-1.771-4.683-3.12 2.035-7.356 4.125-12.437 5.02z" fill="#3762cc"/></g></g><g><g><path d="m169.344 97.777c-14.916 0-24.57-10.554-24.983-11.014-.738-.822-.67-2.086.151-2.824.82-.738 2.083-.672 2.822.149.092.102 9.321 10.154 22.947 9.673 1.128-.016 2.03.827 2.067 1.931s-.828 2.029-1.931 2.067c-.361.012-.719.018-1.073.018z" fill="#3762cc"/></g></g><g><g><path d="m86.602 97.777c-.355 0-.711-.006-1.072-.018-1.104-.038-1.968-.963-1.931-2.067s.949-1.959 2.067-1.931c13.671.479 22.853-9.569 22.944-9.67.738-.823 2.002-.89 2.824-.151.822.738.89 2.002.151 2.824-.412.459-10.068 11.013-24.983 11.013z" fill="#3762cc"/></g></g></g><g><g><g><g><path d="m164.022 192.693c-.959-.257-1.935.268-2.276 1.179l-2.898-.777c.694-4.091.092-8.155-1.542-11.725l2.597-1.499c.265.371.637.629 1.053.741.472.127.993.073 1.45-.191.914-.528 1.228-1.697.7-2.611l-.864-1.496-.864-1.496c-.528-.914-1.697-1.228-2.611-.7-.86.496-1.179 1.558-.776 2.443l-2.597 1.499c-2.275-3.2-5.493-5.753-9.383-7.198l.777-2.898c.96.16 1.902-.422 2.159-1.381.273-1.02-.332-2.068-1.352-2.341l-3.339-.895c-1.02-.273-2.068.332-2.341 1.352-.257.959.268 1.935 1.179 2.276l-.777 2.898c-4.091-.694-8.155-.092-11.725 1.542l-1.499-2.597c.792-.565 1.046-1.643.55-2.503-.528-.914-1.697-1.228-2.611-.7l-1.496.864s0 0-.001 0c0 0 0 0-.001.001l-1.496.863c-.914.528-1.228 1.697-.7 2.611.264.457.688.764 1.161.891.416.112.868.074 1.282-.115l1.499 2.597c-3.2 2.275-5.753 5.493-7.198 9.383l-2.898-.777c.16-.96-.422-1.902-1.381-2.159-1.02-.273-2.068.332-2.341 1.352l-.895 3.339c-.273 1.02.332 2.068 1.352 2.341.959.257 1.935-.268 2.276-1.179l2.898.777c-.694 4.091-.092 8.155 1.542 11.725l-2.597 1.499c-.565-.792-1.644-1.047-2.504-.55-.914.528-1.227 1.697-.699 2.611l.864 1.496v.001.001l.864 1.496c.264.457.688.764 1.161.89.472.127.993.073 1.451-.191.86-.496 1.178-1.558.775-2.443l2.597-1.499c2.275 3.2 5.493 5.753 9.383 7.198l-.777 2.898c-.96-.16-1.902.422-2.159 1.381-.273 1.02.332 2.068 1.352 2.341l3.339.895c1.02.273 2.068-.332 2.341-1.352.257-.959-.268-1.935-1.179-2.276l.777-2.898c4.091.694 8.155.092 11.725-1.542l1.499 2.597c-.792.565-1.046 1.644-.55 2.504.264.457.688.764 1.161.89.472.127.993.073 1.451-.191l1.496-.864 1.496-.864c.914-.528 1.227-1.697.699-2.611-.496-.86-1.557-1.178-2.443-.775l-1.499-2.597c3.2-2.275 5.753-5.493 7.198-9.383l2.898.777c-.16.96.422 1.902 1.381 2.159 1.019.273 2.068-.332 2.341-1.352l.895-3.339c.275-1.022-.33-2.07-1.35-2.343z" fill="#6bdddd"/></g></g><g><g><ellipse cx="138.972" cy="189.748" fill="#4671c6" rx="15.358" ry="15.358" transform="matrix(.259 -.966 .966 .259 -80.28 274.874)"/></g></g><g><g><g><circle cx="137.015" cy="185.611" fill="#a4c9ff" r="5.68"/></g></g><g><g><circle cx="142.71" cy="196.972" fill="#a4c9ff" r="3.16"/></g></g></g><g><g><path d="m150.489 189.551c-.823.475-1.875.193-2.35-.63l-1.72-2.979c-.475-.823-.193-1.875.63-2.35.823-.475 1.875-.193 2.35.63l1.72 2.979c.474.823.192 1.875-.63 2.35z" fill="#a4c9ff"/></g></g><g><g><path d="m132.471 197.317c-.823.475-1.875.193-2.35-.63l-1.72-2.979c-.475-.823-.193-1.875.63-2.35.823-.475 1.875-.193 2.35.63l1.72 2.979c.475.823.193 1.875-.63 2.35z" fill="#a4c9ff"/></g></g></g><g><g><g><path d="m128.512 230.324c-.759-.203-1.532.212-1.801.934l-2.297-.616c.549-3.238.075-6.455-1.218-9.281l2.056-1.187c.21.293.504.498.834.587.374.1.786.058 1.148-.151.724-.418.972-1.343.554-2.067l-.684-1.184-.684-1.184c-.418-.724-1.343-.972-2.067-.554-.681.393-.933 1.233-.614 1.934l-2.056 1.187c-1.801-2.533-4.349-4.551-7.428-5.695l.616-2.297c.76.127 1.506-.334 1.709-1.093.216-.807-.263-1.637-1.07-1.853l-2.643-.708c-.807-.216-1.637.263-1.853 1.07-.203.759.212 1.532.934 1.802l-.616 2.297c-3.238-.549-6.455-.075-9.281 1.218l-1.187-2.056c.627-.447.828-1.301.435-1.982-.418-.724-1.343-.972-2.067-.554l-1.184.684s0 0-.001 0c0 0 0 0-.001 0l-1.184.684c-.724.418-.972 1.343-.554 2.067.209.362.545.605.919.705.329.088.687.058 1.015-.091l1.187 2.056c-2.533 1.801-4.551 4.349-5.695 7.428l-2.297-.615c.127-.76-.334-1.506-1.093-1.709-.807-.216-1.637.263-1.853 1.07l-.708 2.643c-.216.807.263 1.637 1.07 1.853.759.203 1.532-.212 1.802-.934l2.297.615c-.549 3.238-.075 6.455 1.218 9.281l-2.056 1.187c-.447-.627-1.301-.829-1.982-.436-.724.418-.972 1.343-.554 2.067l.684 1.184v.001.001l.684 1.184c.209.362.545.605.919.705s.786.058 1.148-.151c.681-.393.933-1.233.614-1.934l2.056-1.187c1.801 2.533 4.349 4.551 7.428 5.695l-.616 2.297c-.76-.127-1.506.334-1.709 1.093-.216.807.263 1.637 1.07 1.853l2.643.708c.807.216 1.637-.263 1.853-1.07.203-.759-.212-1.531-.933-1.801l.616-2.297c3.238.549 6.455.075 9.281-1.218l1.187 2.056c-.627.448-.828 1.301-.435 1.982.209.362.545.605.919.705s.786.058 1.148-.151l1.184-.684 1.184-.684c.724-.418.972-1.343.554-2.067-.393-.681-1.233-.933-1.934-.614l-1.187-2.056c2.533-1.801 4.551-4.349 5.695-7.428l2.297.615c-.127.76.334 1.506 1.093 1.709.807.216 1.637-.263 1.853-1.07l.708-2.643c.216-.809-.263-1.638-1.07-1.855z" fill="#6bdddd"/></g></g><g><g><ellipse cx="108.682" cy="227.994" fill="#4671c6" rx="12.157" ry="12.157" transform="matrix(.259 -.966 .966 .259 -139.672 273.963)"/></g></g><g><g><g><circle cx="107.133" cy="224.719" fill="#a4c9ff" r="4.497"/></g></g><g><g><circle cx="111.641" cy="233.712" fill="#a4c9ff" r="2.502"/></g></g></g><g><g><path d="m117.798 227.837c-.651.376-1.484.153-1.86-.498l-1.362-2.358c-.376-.651-.153-1.484.498-1.86.651-.376 1.484-.153 1.86.498l1.362 2.358c.377.652.154 1.484-.498 1.86z" fill="#a4c9ff"/></g></g><g><g><path d="m103.536 233.985c-.651.376-1.484.153-1.86-.498l-1.362-2.358c-.376-.651-.153-1.484.498-1.86.651-.376 1.484-.153 1.86.498l1.362 2.358c.376.651.153 1.484-.498 1.86z" fill="#a4c9ff"/></g></g></g></g><g><g><g><g><path d="m168.672 233.134c-.431-.116-.87.121-1.024.53l-1.305-.35c.312-1.84.043-3.668-.692-5.273l1.168-.674c.119.167.286.283.474.333.212.057.447.033.652-.086.411-.237.552-.763.315-1.174l-.389-.673-.389-.673c-.237-.411-.763-.552-1.174-.315-.387.223-.53.701-.349 1.099l-1.168.675c-1.023-1.439-2.471-2.586-4.221-3.236l.35-1.305c.432.072.856-.19.971-.621.123-.459-.149-.93-.608-1.053l-1.502-.402c-.459-.123-.93.149-1.053.608-.116.431.121.87.531 1.024l-.35 1.305c-1.84-.312-3.668-.043-5.273.692l-.674-1.168c.356-.254.471-.739.247-1.126-.237-.411-.763-.552-1.174-.315l-.673.389-.673.388c-.411.237-.552.763-.315 1.174.119.206.31.344.522.401.187.05.39.033.577-.052l.674 1.168c-1.439 1.023-2.586 2.471-3.236 4.221l-1.305-.35c.072-.432-.19-.856-.621-.971-.459-.123-.93.149-1.053.608l-.402 1.502c-.123.459.149.93.608 1.053.431.116.87-.121 1.024-.53l1.305.35c-.312 1.84-.043 3.668.692 5.274l-1.168.674c-.254-.356-.739-.471-1.126-.247-.411.237-.552.763-.315 1.175l.388.673.389.673c.119.206.31.344.522.401s.447.033.652-.086c.387-.223.53-.701.349-1.099l1.168-.675c1.023 1.439 2.471 2.586 4.221 3.236l-.35 1.305c-.432-.072-.856.19-.971.621-.123.459.149.93.608 1.053l1.502.402c.459.123.93-.149 1.053-.608.116-.431-.121-.87-.53-1.024l.35-1.305c1.84.312 3.668.043 5.273-.692l.674 1.168c-.356.254-.471.739-.247 1.126.119.206.31.344.522.401s.447.033.652-.086l.673-.389.673-.389c.411-.237.552-.763.315-1.175-.223-.387-.701-.53-1.099-.349l-.674-1.168c1.439-1.023 2.586-2.471 3.236-4.221l1.305.35c-.072.432.19.856.621.971.459.123.93-.149 1.053-.608l.402-1.502c.123-.459-.149-.931-.608-1.053z" fill="#6bdddd"/></g></g><g><g><ellipse cx="157.404" cy="231.809" fill="#4671c6" rx="5.872" ry="5.872" transform="matrix(.259 -.966 .966 .259 -107.245 323.854)"/></g></g></g><g><g><g><path d="m109.863 189.552c-.431-.116-.87.121-1.024.53l-1.305-.35c.312-1.84.043-3.668-.692-5.273l1.168-.674c.119.167.286.283.474.333.212.057.447.033.652-.086.411-.237.552-.763.315-1.174l-.389-.673-.389-.673c-.237-.411-.763-.552-1.174-.315-.387.223-.53.701-.349 1.099l-1.168.675c-1.023-1.439-2.471-2.586-4.221-3.236l.35-1.305c.432.072.856-.19.971-.621.123-.459-.149-.93-.608-1.053l-1.502-.402c-.459-.123-.93.149-1.053.608-.116.431.121.87.531 1.024l-.35 1.305c-1.84-.312-3.668-.043-5.273.692l-.674-1.168c.356-.254.471-.739.247-1.126-.237-.411-.763-.552-1.174-.315l-.673.388-.673.388c-.411.237-.552.763-.315 1.174.119.206.31.344.522.401.187.05.39.033.577-.052l.674 1.168c-1.439 1.023-2.586 2.471-3.236 4.221l-1.305-.35c.072-.432-.19-.856-.621-.971-.459-.123-.93.149-1.053.608l-.402 1.502c-.123.459.149.93.608 1.053.431.116.87-.121 1.024-.53l1.305.35c-.312 1.84-.043 3.668.692 5.274l-1.168.674c-.254-.356-.739-.471-1.126-.247-.411.237-.552.763-.315 1.175.224.493.796 1.612 1.299 1.747.212.057.447.033.652-.086.387-.223.53-.701.349-1.099l1.168-.675c1.023 1.439 2.471 2.586 4.221 3.236l-.35 1.305c-.432-.072-.856.19-.971.621-.123.459.149.93.608 1.053l1.502.402c.459.123.93-.149 1.053-.608.116-.431-.121-.87-.53-1.024l.35-1.305c1.84.312 3.668.043 5.273-.692l.674 1.168c-.356.254-.471.739-.247 1.126.119.206.31.344.522.401s.447.033.652-.086l.673-.389.673-.389c.411-.237.552-.763.315-1.175-.223-.387-.701-.53-1.099-.349l-.674-1.168c1.439-1.023 2.586-2.471 3.236-4.221l1.305.35c-.072.432.19.856.621.971.459.123.93-.149 1.053-.608l.402-1.502c.123-.458-.149-.929-.608-1.052z" fill="#6bdddd"/></g></g><g><g><ellipse cx="98.596" cy="188.228" fill="#4671c6" rx="5.872" ry="5.872" transform="matrix(.259 -.966 .966 .259 -108.737 234.747)"/></g></g></g></g></g></svg>