<svg id="Capa_1" enable-background="new 0 0 512 512" height="512" viewBox="0 0 512 512" width="512" xmlns="http://www.w3.org/2000/svg"><g><path d="m363.806 0h-215.611c-55.77 0-101.141 45.371-101.141 101.14v177.975c0 4.142 3.358 7.5 7.5 7.5s7.5-3.358 7.5-7.5v-177.975c0-47.498 38.643-86.14 86.14-86.14h215.612c47.498 0 86.14 38.642 86.14 86.14v69.183c0 4.142 3.357 7.5 7.5 7.5s7.5-3.358 7.5-7.5v-69.183c0-55.769-45.371-101.14-101.14-101.14z"/><path d="m457.446 192.824c-4.143 0-7.5 3.358-7.5 7.5v129.806c0 47.498-38.643 86.14-86.141 86.14h-55.379c-7.991 0-15.252 4.719-18.498 12.023l-29.139 65.595c-1.248 2.809-3.765 3.112-4.789 3.112s-3.541-.304-4.789-3.113l-29.14-65.595c-3.245-7.304-10.505-12.023-18.497-12.023h-55.379c-47.498 0-86.14-38.642-86.14-86.14v-21.014c0-4.142-3.358-7.5-7.5-7.5s-7.5 3.358-7.5 7.5v21.014c0 55.769 45.371 101.14 101.14 101.14h55.379c2.069 0 3.949 1.222 4.789 3.113l29.14 65.594c3.295 7.417 10.382 12.024 18.497 12.024s15.203-4.607 18.498-12.023l29.139-65.594c.841-1.891 2.721-3.113 4.79-3.113h55.379c55.77 0 101.141-45.371 101.141-101.14v-129.806c-.001-4.143-3.358-7.5-7.501-7.5z"/><path d="m269.839 281.463h-27.954c-7.027 0-12.744-5.717-12.744-12.745v-65.817c0-9.526 7.75-17.276 17.276-17.276h9.445c8.91 0 17.204-3.567 23.353-10.043 6.144-6.471 9.271-14.962 8.805-23.91-.868-16.736-14.696-30.11-31.48-30.448-16.33-.345-30.321 11.565-32.569 27.671-.955 6.876-6.867 12.025-13.76 12.025h-25.959c-3.84 0-7.532-1.624-10.126-4.455-2.613-2.851-3.918-6.701-3.582-10.563.126-1.458.294-2.934.496-4.388 5.987-42.902 43.208-74.594 86.577-73.723 44.664.899 81.462 36.527 83.775 81.11 1.232 23.73-7.086 46.273-23.42 63.478-9.28 9.774-20.957 17.323-33.768 21.829-.984.346-1.621 1.201-1.621 2.177v32.333c0 7.028-5.717 12.745-12.744 12.745zm-25.699-15h23.442v-30.078c0-7.315 4.68-13.877 11.643-16.327 10.579-3.721 20.215-9.948 27.866-18.007 13.475-14.191 20.335-32.791 19.318-52.373-1.907-36.767-32.259-66.148-69.097-66.89-35.769-.723-66.481 25.418-71.419 60.797-.108.773-.203 1.555-.286 2.336h23.64c3.721-23.196 24.042-40.163 47.592-39.694 24.608.496 44.883 20.116 46.158 44.667.681 13.096-3.903 25.532-12.907 35.016-9.01 9.489-21.167 14.715-34.231 14.715h-9.445c-1.255 0-2.276 1.021-2.276 2.276v63.562z"/><path d="m256.066 360.647c-16.232 0-29.438-13.206-29.438-29.438s13.206-29.438 29.438-29.438 29.438 13.206 29.438 29.438c0 16.233-13.206 29.438-29.438 29.438zm0-43.875c-7.961 0-14.438 6.477-14.438 14.438s6.477 14.438 14.438 14.438 14.438-6.477 14.438-14.438-6.477-14.438-14.438-14.438z"/></g></svg>