<svg id="Capa_1" enable-background="new 0 0 512 512" height="512" viewBox="0 0 512 512" width="512" xmlns="http://www.w3.org/2000/svg"><g><g><path d="m277 15v31c0 8.399-6.599 15-15 15s-15-6.601-15-15v-31c0-8.401 6.599-15 15-15s15 6.599 15 15z" fill="#ff6c6c"/></g><g><path d="m277 106v30c0 8.399-6.599 15-15 15s-15-6.601-15-15v-30c0-8.401 6.599-15 15-15s15 6.599 15 15z" fill="#ff6c6c"/></g><g><path d="m277 196v30c0 8.399-6.599 15-15 15s-15-6.601-15-15v-30c0-8.401 6.599-15 15-15s15 6.599 15 15z" fill="#ff6c6c"/></g><g><path d="m277 286v30c0 8.399-6.599 15-15 15s-15-6.601-15-15v-30c0-8.401 6.599-15 15-15s15 6.599 15 15z" fill="#ff6c6c"/></g><g><path d="m277 376v30c0 8.399-6.599 15-15 15s-15-6.601-15-15v-30c0-8.401 6.599-15 15-15s15 6.599 15 15z" fill="#ff6c6c"/></g><g><path d="m277 466v31c0 8.399-6.599 15-15 15s-15-6.601-15-15v-31c0-8.401 6.599-15 15-15s15 6.599 15 15z" fill="#ff6c6c"/></g><g><circle cx="112" cy="106" fill="#fcc" r="45"/><path d="m157 106c0-24.814-20.186-45-45-45v90c24.814 0 45-20.186 45-45z" fill="#ffb3b3"/><path d="m215.93 310.434-48.853-122.139s0 0 0-.015c-9.067-22.646-30.688-37.28-55.077-37.28s-46.011 14.634-55.078 37.295l-48.853 122.139c-1.846 4.614-1.274 9.858 1.509 13.975 2.798 4.115 7.441 6.591 12.422 6.591h45v105c0 8.291 6.709 15 15 15h30 30c8.291 0 15-6.709 15-15v-105h45c4.98 0 9.624-2.476 12.422-6.592 2.783-4.116 3.354-9.36 1.508-13.974z" fill="#f9f"/><path d="m157 436v-105h45c4.98 0 9.624-2.476 12.422-6.592 2.783-4.116 3.354-9.36 1.509-13.975l-48.853-122.139s0 0 0-.015c-9.068-22.645-30.689-37.279-55.078-37.279v300h30c8.291 0 15-6.709 15-15z" fill="#e666ff"/></g><path d="m459.949 151h-47.949-48.369c-29.643 0-52.952 28.614-42.29 60.352l45.659 107.695v116.953c0 8.291 6.709 15 15 15h30 30c8.291 0 15-6.709 15-15v-116.953l45.649-108.809c9.728-29.185-11.951-59.238-42.7-59.238z" fill="#5f55af"/><path d="m457 436v-116.953l45.649-108.809c9.728-29.185-11.951-59.238-42.7-59.238h-47.949v300h30c8.291 0 15-6.709 15-15z" fill="#453d83"/><circle cx="412" cy="106" fill="#fcc" r="45"/><path d="m457 106c0-24.814-20.186-45-45-45v90c24.814 0 45-20.186 45-45z" fill="#ffb3b3"/><g fill="#e63950"><path d="m277 15v31c0 8.399-6.599 15-15 15v-61c8.401 0 15 6.599 15 15z"/><path d="m277 106v30c0 8.399-6.599 15-15 15v-60c8.401 0 15 6.599 15 15z"/><path d="m277 196v30c0 8.399-6.599 15-15 15v-60c8.401 0 15 6.599 15 15z"/><path d="m277 286v30c0 8.399-6.599 15-15 15v-60c8.401 0 15 6.599 15 15z"/><path d="m277 376v30c0 8.399-6.599 15-15 15v-60c8.401 0 15 6.599 15 15z"/><path d="m277 466v31c0 8.399-6.599 15-15 15v-61c8.401 0 15 6.599 15 15z"/></g></g></svg>