<svg xmlns="http://www.w3.org/2000/svg" xmlns:xlink="http://www.w3.org/1999/xlink" id="Layer_1" x="0" y="0" version="1.1" viewBox="0 0 496.158 496.158" xml:space="preserve" style="enable-background:new 0 0 496.158 496.158"><path style="fill:#48a1af" d="M248.082,0.002C111.07,0.002,0,111.062,0,248.085c0,137,111.07,248.07,248.082,248.07	c137.006,0,248.076-111.07,248.076-248.07C496.158,111.062,385.088,0.002,248.082,0.002z"/><rect style="fill:#efeee4" width="42.747" height="6.393" x="357.751" y="181.482" transform="matrix(-0.9986 0.052 -0.052 -0.9986 767.3391 349.3907)"/><rect style="fill:#9e9d86" width=".493" height="6.393" x="360.756" y="182.451" transform="matrix(-0.9987 0.0515 -0.0515 -0.9987 731.0858 352.4569)"/><polygon style="fill:#9fa09f" points="402.559 184.706 402.088 183.285 401.261 182.605 402.216 181.11 402.328 180.278 400.323 180.383 400.655 186.767 401.715 186.712 402.36 186.214 402.115 185.452"/><polygon style="fill:#888988" points="401.561 183.777 402.088 183.285 401.261 182.605 402.216 181.11 402.328 180.278 400.478 183.369 400.537 184.502 401.715 186.712 402.36 186.214"/><path style="fill:#f2ad51" d="M357.632,182.606l-12.621,0.671c-0.076,1.052-0.089,2.122-0.032,3.203	c0.056,1.081,0.18,2.143,0.363,3.182l12.622-0.671L357.632,182.606z"/><path style="fill:#e79e2f" d="M357.632,182.606c0,0-12.474,6.017-12.29,7.056l12.622-0.671L357.632,182.606z"/><path style="fill:#dfa17c" d="M338.078,144.923c0,0-15.32-7.21-23.431-22.528c0,0-3.782-8.096-5.074-11.328	c-0.602-1.5-0.298-6.576-1.673-10.534c-4.415-12.714-10.644-27.918-17.582-36.709c0,0-44.233-42.274-99.197-18.845	c0,0-63.943,24.577-63.078,81.099c0.867,56.522,28.01,81.921,49.637,111.657c0,0-6.183,34.753-16.22,44.154	c0,0,13.005,19.58,27.312,29.797c14.305,10.218,37.567,16.158,37.567,16.158s6.96-51.304,25.229-70.286	c5.03-5.229,14.697-21.74,55.868-18.022c0,0,32.438-0.001,30.638-30.637c0,0,0.263-6.046,2.605-7.5l0.637-30.11	c-0.285-0.539-0.824-3.663,0.791-6.464C342.107,164.825,354.296,152.133,338.078,144.923z"/><path style="fill:#6e4832" d="M303.019,106.785c0,0-19.254-3.609-27.852-1.172c-3.449,0.977-9.842,9.972-9.842,9.972	s8.89-3.496,12.229-4.481c3.338-0.985,26.012-1.346,26.012-1.346S306.518,107.971,303.019,106.785z"/><path style="fill:#644b44" d="M296.175,125.035c-6.131,1.362-18.677,2.384-18.677,2.384c9.096,7.123,17.496,5.401,22.311,1.703	c4.468-3.435,5.677-8.629,5.677-8.629S302.306,123.674,296.175,125.035z"/><path style="fill:#6e4832" d="M308.452,80.634C257.754,2.906,176.853,43.065,151.749,65.82	c-78.103,70.795,24.759,174.68,24.759,174.68s11.242-11.921,11.582-37.126c0.34-25.24,7.145-51.123,20.54-72.053	c9.118-14.246,21.03-24.323,33.35-31.503c24.646-14.368,58.251-8.088,67.055-9.436C311.377,90.025,309.458,82.174,308.452,80.634z"/><g><path style="fill:#dfa17c" d="M345.608,186.37c0.301-2.405,3.397-5.255,3.07-7.865c-0.938-7.486-4.402-6.45-6.63-6.759 c-2.229-0.31-6.73,10.422-6.73,10.422c-1.963,4.228,0.647,17.884,0.647,17.884c8.669,3.892,10.936-1.239,10.936-1.239 C349.486,192.187,345.284,188.956,345.608,186.37z"/><ellipse style="fill:#dfa17c" cx="191.43" cy="165.774" rx="21.109" ry="16.794" transform="matrix(-0.331 -0.9436 0.9436 -0.331 98.3664 401.2847)"/></g><path style="fill:#337180" d="M146.536,274.901c-27.03-1.04-81.179,78.088-103.453,112.91	c36.192,52.99,92.392,91.219,157.726,103.826c18.26-26.697,52.438-70.77,61.367-116.225	C277.162,299.116,146.536,274.901,146.536,274.901z"/><g><path style="fill:#dfa17c" d="M369.591,222.668c0,0-3.235-11.364-7.69-19.781c-0.524-0.99-6.268-9.127-10.758-4.869 c-1.636,1.554,0.755,7.785,1.396,14.768c0.67,7.269,1.863,14.173,3.388,17.171c3.002,5.862,5.389,16.419,5.389,16.419 l14.505-12.253L369.591,222.668z"/><path style="fill:#dfa17c" d="M388.273,205.898l-15.418-21.654l-11.154-16.473c-1.447-3.942-4.016-9.764-7.509-7.093 c-2.628,2.011-1.853,4.437-1.233,7.924l9.772,20.73l7.962,19.94c0,0,2.174,2.519,5.624,1.918 C379.76,210.588,388.892,209.388,388.273,205.898z"/><path style="fill:#dfa17c" d="M405.288,251.74c-6.419-23.524-12.092-30.954-14.183-38.387c-1.563-5.542-2.564-7.518-5.755-11.7 l-15.243,4.96c0,0,1.563,8.107,2.067,11.881l-0.248,10.021l-11.357,15.31c1.666,10.123,11.953,27.043,14.964,29.213 c0.724,0.522-1.09,6.506-4.301,15.838c-9.004,26.167,30.522,21.092,31.826,5.651c0.17-1.992,0.537-13.259,0.783-15.451 C405.901,260.822,405.288,251.74,405.288,251.74z"/></g><path style="fill:#337180" d="M368.175,284.078l-54.333,156l-58.999-106.667l-52.448,101.575l55.146,60.971	c39.068-1.465,75.828-11.952,108.246-29.459l45.055-180.087L368.175,284.078z"/></svg>