<svg id="Capa_1" enable-background="new 0 0 512 512" height="512" viewBox="0 0 512 512" width="512" xmlns="http://www.w3.org/2000/svg"><g><path d="m389 308.842c-.11-45.679-37.363-82.842-83.042-82.842l-110.958 30-106.962-30c-48.544 0-88.038 39.494-88.038 88.039v167.961c0 8.284 6.716 15 15 15h359.425c8.294 0 15.02-6.741 15-15.037z" fill="#fdbbab"/><path d="m389.42 481.96c.021 8.352-6.759 15.04-15 15.04h-179.42v-241l111-30c45.66.02 82.89 37.17 83 82.84z" fill="#ffa58d"/><path d="m306 226v271h-220v-271h79v60c0 16.559 13.439 30 30 30 16.57 0 30-13.43 30-30v-60z" fill="#f4425c"/><path d="m306 226v271h-111v-181c16.57 0 30-13.43 30-30v-60z" fill="#dd124c"/><path d="m302 149c0 59-48 107-107 107s-107-48-107-107v-18h145c27.6 0 52.33-12.48 68.85-32.1.282 1.951.099.17.15 50.1z" fill="#fbcdbe"/><path d="m302 149c0 59.102-48.131 107-107 107v-125h38c27.6 0 52.33-12.48 68.85-32.1.282 1.951.099.17.15 50.1z" fill="#fdbbab"/><path d="m313 15h-130c-52.467 0-95 42.533-95 95v26h145c52.467 0 95-42.533 95-95v-11c0-8.284-6.716-15-15-15z" fill="#004071"/><path d="m328 30v11c0 52.326-42.389 95-95 95h-38v-121h118c8.28 0 15 6.72 15 15z" fill="#00244c"/><circle cx="196" cy="422" fill="#fc6581" r="44"/><path d="m240 422c0 25.109-21.017 44.717-45 43.99v-87.98c23.97-.727 45 18.87 45 43.99z" fill="#f4425c"/><path d="m375.31 263.05-32.45 32.45c-5.824 5.824-15.327 5.883-21.21 0-5.86-5.86-5.86-15.35 0-21.21l32.46-32.46c4.094 9.729 11.926 17.297 21.2 21.22z" fill="#b0f2ff"/><path d="m433.451 236.022c-.001 4.419-.001 6.896-.002 11.315l-10.7 10.693c-17.514 17.534-46.078 17.561-63.64 0-17.54-17.54-17.54-46.09 0-63.64l10.703-10.697c4.417.001 6.895.001 11.312.002z" fill="#22c7e0"/><path d="m479.32 159.04-28.28 28.29-21.22-21.22 28.29-28.28z" fill="#84eef9"/><path d="m475.777 204.991-63.598-63.598c-5.857-5.858-15.355-5.858-21.213 0-5.847 5.847-5.856 15.318-.031 21.179l-21.185 21.178 63.64 63.64 21.185-21.177c5.856 5.846 15.346 5.848 21.202-.009 5.859-5.858 5.859-15.355 0-21.213z" fill="#b0f2ff"/><path d="m507.606 151.967-42.427-42.427c-5.857-5.858-15.355-5.858-21.213 0s-5.858 15.355 0 21.213l42.427 42.427c5.857 5.858 15.355 5.859 21.213 0 5.859-5.858 5.859-15.355 0-21.213z" fill="#84eef9"/></g></svg>