<svg id="Layer_1" enable-background="new 0 0 256 256" height="512" viewBox="0 0 256 256" width="512" xmlns="http://www.w3.org/2000/svg"><g><g><g><g><path d="m173.57 167.638h-91.14c-14.804 0-26.806 12.051-26.806 26.917v33.78h23.834v24.7h97.084v-24.7h23.834c0-12.612 0-21.116 0-33.78 0-14.865-12.001-26.917-26.806-26.917z" fill="#4671c6"/></g></g><g><g><path d="m100.659 144.222v25.573c0 14.851 11.989 26.889 26.778 26.889 14.782 0 26.778-12.03 26.778-26.892 0-5.173 0-20.224 0-25.57z" fill="#f9cfcf"/></g></g><g><g><path d="m55.624 228.335h23.834v24.7h-23.834z" fill="#f9cfcf"/></g></g><g><g><path d="m176.542 228.335h23.834v24.7h-23.834z" fill="#f9cfcf"/></g></g><g><g><path d="m200.376 255.036h-144.752c-1.104 0-2-.896-2-2v-58.48c0-15.945 12.922-28.917 28.806-28.917h16.229v-21.417c0-1.104.896-2 2-2h53.556c1.104 0 2 .896 2 2v21.417h17.356c15.883 0 28.806 12.972 28.806 28.917v58.48c-.001 1.104-.897 2-2.001 2zm-142.752-4h140.752v-56.48c0-13.74-11.128-24.917-24.806-24.917h-19.356c-1.104 0-2-.896-2-2v-21.417h-49.556v21.417c0 1.104-.896 2-2 2h-18.228c-13.678 0-24.806 11.178-24.806 24.917z" fill="#3762cc"/></g></g><g><g><path d="m79.458 255.036c-1.104 0-2-.896-2-2v-42.699c0-1.104.896-2 2-2s2 .896 2 2v42.699c0 1.104-.895 2-2 2z" fill="#3762cc"/></g></g><g><g><path d="m176.542 255.036c-1.105 0-2-.896-2-2v-42.699c0-1.104.895-2 2-2 1.104 0 2 .896 2 2v42.699c0 1.104-.896 2-2 2z" fill="#3762cc"/></g></g><g><g><path d="m79.458 255.036h-23.834c-1.104 0-2-.896-2-2v-24.7c0-1.104.896-2 2-2h23.834c1.104 0 2 .896 2 2v24.7c0 1.104-.895 2-2 2zm-21.834-4h19.834v-20.7h-19.834z" fill="#3762cc"/></g></g><g><g><path d="m200.376 255.036h-23.834c-1.105 0-2-.896-2-2v-24.7c0-1.104.895-2 2-2h23.834c1.104 0 2 .896 2 2v24.7c0 1.104-.896 2-2 2zm-21.834-4h19.834v-20.7h-19.834z" fill="#3762cc"/></g></g></g><g><g><g><path d="m127.929 167.776c-34.657 0-62.753-28.095-62.753-62.752v-26.284c0-8.711 7.062-15.773 15.773-15.773h109.732v42.057c.001 34.657-28.095 62.752-62.752 62.752z" fill="#4671c6"/></g></g><g><g><path d="m127.929 169.776c-35.705 0-64.753-29.048-64.753-64.752v-26.284c0-9.8 7.973-17.773 17.773-17.773h109.732c1.104 0 2 .896 2 2v42.057c.001 35.704-29.047 64.752-64.752 64.752zm-46.979-104.81c-7.595 0-13.773 6.179-13.773 13.773v26.284c0 33.499 27.253 60.752 60.752 60.752 33.499 0 60.752-27.253 60.752-60.752v-40.057z" fill="#3762cc"/></g></g><g><g><path d="m181.376 109.266v-5.004c0-29.252-23.929-52.965-53.447-52.965-29.518 0-53.447 23.713-53.447 52.965v5.004c-9.281-.188-16.644 7.205-16.644 16.142 0 9.543 8.331 17.091 18.055 16.063 5.516 23.433 26.712 40.892 52.035 40.892 25.324 0 46.52-17.46 52.035-40.892 9.711 1.027 18.055-6.507 18.055-16.063.001-8.942-7.367-16.331-16.642-16.142z" fill="#f9cfcf"/></g></g><g><g><path d="m127.929 184.362c-25.335 0-47.126-16.692-53.572-40.802-4.611.065-9.082-1.618-12.509-4.701-3.819-3.437-6.009-8.339-6.009-13.452 0-4.894 1.934-9.484 5.445-12.924 3.051-2.99 6.97-4.78 11.199-5.149v-3.073c0-30.308 24.874-54.965 55.447-54.965s55.446 24.657 55.446 54.965v3.073c4.229.37 8.147 2.16 11.2 5.15 3.51 3.44 5.444 8.03 5.444 12.923 0 5.112-2.19 10.015-6.008 13.451-3.428 3.084-7.896 4.772-12.511 4.702-6.446 24.11-28.236 40.802-53.572 40.802zm-52.033-44.892c.918 0 1.731.63 1.945 1.542 5.453 23.168 26.05 39.35 50.088 39.35s44.635-16.182 50.088-39.35c.231-.98 1.155-1.637 2.157-1.531 4.074.427 8.142-.88 11.161-3.597 2.977-2.678 4.684-6.497 4.684-10.477 0-3.81-1.507-7.385-4.244-10.066-2.764-2.708-6.447-4.152-10.359-4.076-.538.017-1.056-.194-1.44-.571-.384-.376-.6-.891-.6-1.429v-5.004c0-28.103-23.079-50.965-51.446-50.965s-51.447 22.863-51.447 50.965v5.004c0 .538-.216 1.052-.6 1.429-.385.376-.913.585-1.44.571-3.923-.079-7.596 1.368-10.359 4.075-2.737 2.682-4.244 6.257-4.244 10.067 0 3.98 1.708 7.799 4.685 10.478 3.019 2.717 7.09 4.028 11.16 3.596.07-.007.141-.011.211-.011z" fill="#3762cc"/></g></g><g><g><path d="m190.682 98.992h-83.852c-17.865 0-32.347-14.482-32.347-32.347 0-17.865 14.482-32.347 32.347-32.347h54.886c15.998 0 28.966 12.969 28.966 28.966z" fill="#4671c6"/></g></g><g><g><path d="m190.682 100.992h-83.852c-18.939 0-34.347-15.408-34.347-34.347s15.408-34.347 34.347-34.347h54.886c17.075 0 30.966 13.891 30.966 30.966v35.729c0 1.104-.896 1.999-2 1.999zm-83.852-64.694c-16.733 0-30.347 13.614-30.347 30.347s13.614 30.347 30.347 30.347h81.852v-33.728c0-14.869-12.097-26.966-26.966-26.966z" fill="#3762cc"/></g></g><g><g><path d="m150.635 118.938c-1.039 1.19-1.673 2.742-1.673 4.446v7.22c0 3.738 3.03 6.768 6.768 6.768 3.738 0 6.768-3.03 6.768-6.768v-6.892c-4.845-.847-8.886-2.836-11.863-4.774z" fill="#3762cc"/></g></g><g><g><path d="m93.347 123.705v6.899c0 3.738 3.03 6.768 6.768 6.768s6.768-3.03 6.768-6.768v-7.22c0-1.711-.64-3.269-1.687-4.461-2.972 1.938-7.009 3.929-11.849 4.782z" fill="#3762cc"/></g></g><g><g><path d="m167.317 126.138c-14.252 0-23.478-10.085-23.873-10.524-.738-.822-.67-2.086.151-2.824.82-.738 2.084-.671 2.822.149.118.129 8.897 9.621 21.788 9.184 1.127-.012 2.03.828 2.067 1.931.037 1.104-.828 2.029-1.931 2.067-.343.012-.685.017-1.024.017z" fill="#3762cc"/></g></g><g><g><path d="m88.489 126.138c-.339 0-.679-.005-1.024-.017-1.104-.038-1.968-.963-1.931-2.067.038-1.104.951-1.947 2.067-1.931 12.979.461 21.699-9.085 21.786-9.182.738-.823 2.002-.89 2.824-.151.822.738.89 2.002.151 2.824-.395.439-9.623 10.524-23.873 10.524z" fill="#3762cc"/></g></g><g><g><path d="m140.629 159.093c-.515 0-1.029-.197-1.42-.591-1.571-1.584-3.705-2.818-6.171-3.568-1.566-.477-3.363-.699-5.45-.668-1.928.024-3.689.299-5.233.817-2.267.759-4.24 1.941-5.706 3.419-.778.784-2.044.789-2.829.011-.784-.778-.789-2.044-.011-2.829 1.904-1.919 4.419-3.438 7.275-4.395 1.938-.649 4.109-.994 6.452-1.024 2.526-.027 4.7.244 6.666.841 3.098.943 5.811 2.525 7.847 4.578.778.784.773 2.051-.011 2.829-.391.386-.9.58-1.409.58z" fill="#3762cc"/></g></g><g><g><g><path d="m125.286 65.631c-1.95 0-3.397-1.839-2.915-3.729 1.494-5.858 5.558-6.491 5.558-11.936 0-6.279-6-6.781-6-15.666 0-8.884 6-9.387 6-15.668 0-5.447-4.064-6.076-5.558-11.939-.482-1.89.965-3.729 2.915-3.729 1.38 0 2.558.951 2.909 2.286 1.032 3.922 5.734 5.694 5.734 13.382 0 8.884-6 9.387-6 15.668 0 6.28 6 6.779 6 15.666 0 7.689-4.701 9.456-5.734 13.379-.351 1.335-1.529 2.286-2.909 2.286z" fill="#a4c9ff"/></g></g></g><g><g><g><path d="m105.286 65.631c-1.95 0-3.397-1.839-2.915-3.729 1.494-5.858 5.558-6.491 5.558-11.936 0-6.279-6-6.781-6-15.666 0-8.884 6-9.387 6-15.668 0-5.447-4.064-6.076-5.558-11.939-.482-1.89.965-3.729 2.915-3.729 1.38 0 2.558.951 2.909 2.286 1.032 3.922 5.734 5.694 5.734 13.382 0 8.884-6 9.387-6 15.668 0 6.28 6 6.779 6 15.666 0 7.689-4.701 9.456-5.734 13.379-.351 1.335-1.529 2.286-2.909 2.286z" fill="#a4c9ff"/></g></g></g><g><g><g><path d="m145.286 65.631c-1.95 0-3.397-1.839-2.915-3.729 1.494-5.858 5.558-6.491 5.558-11.936 0-6.279-6-6.781-6-15.666 0-8.884 6-9.387 6-15.668 0-5.447-4.064-6.076-5.558-11.939-.482-1.89.965-3.729 2.915-3.729 1.38 0 2.558.951 2.909 2.286 1.032 3.922 5.734 5.694 5.734 13.382 0 8.884-6 9.387-6 15.668 0 6.28 6 6.779 6 15.666 0 7.689-4.701 9.456-5.734 13.379-.351 1.335-1.529 2.286-2.909 2.286z" fill="#a4c9ff"/></g></g></g></g></g></svg>