<svg height="512" viewBox="0 0 512 512" width="512" xmlns="http://www.w3.org/2000/svg"><g id="Flat"><path d="m144 24h128v40h-128z" fill="#fec9a3"/><path d="m24 24 8 184-8 184 8 72 16 24h40l-16-112 24-168v-184" fill="#fec093"/><path d="m339.44 328a193.435 193.435 0 0 0 -9.75-21.54l-20.71-39.11a127.967 127.967 0 0 1 -11.05-90.93l5.14-17.69q2.115-7.3 3.74-14.73h-199.35q.6 3.405 1.31 6.78l5.36 25.64a127.967 127.967 0 0 1 -11.05 90.93l-20.71 39.11a192.178 192.178 0 0 0 -20.83 113.65l8.49 67.89h113.97v-80h48v80h110.03l8.49-67.89a192.016 192.016 0 0 0 -11.08-92.11z" fill="#fec9a3"/><path d="m331.2 96 44.8 112 72 96h40v-16a76.141 76.141 0 0 0 -13.763-43.662l-42.237-60.338-40-160h-64z" fill="#fec093"/><path d="m324 239.351h16v25.298h-16z" fill="#e0e0de" transform="matrix(.949 -.316 .316 .949 -62.652 117.919)"/><path d="m353.578 252h28.844v16h-28.844z" fill="#e0e0de" transform="matrix(.555 -.832 .832 .555 -52.463 421.972)"/><path d="m428 377.578h16v28.844h-16z" fill="#e0e0de" transform="matrix(.555 -.832 .832 .555 -132.013 537.331)"/><path d="m396 399.508h16v32.985h-16z" fill="#e0e0de" transform="matrix(.97 -.243 .243 .97 -88.832 110.405)"/><path d="m329.5 24h-58.684a77.674 77.674 0 0 1 -62.816 32 77.674 77.674 0 0 1 -62.816-32h-58.684a51.809 51.809 0 0 0 -14.5 36c0 21.644 13.191 44.172 32 52 .177 12.066 1.352 20.12 3.46 32h199.35c2.585-11.8 4.538-19.931 5.19-32 18.963-7.758 32-30.245 32-52a51.809 51.809 0 0 0 -14.5-36z" fill="#f59898"/><path d="m304 120h-144v-16h144a8 8 0 0 1 8 8 8 8 0 0 1 -8 8z" fill="#eb8484"/><path d="m128 104h16v16h-16z" fill="#eb8484"/><path d="m400 328h-32l25.367-50.733a24 24 0 0 1 21.466-13.267h49.167a24 24 0 0 1 24 24v48a16 16 0 0 1 -16 16h-48a16 16 0 0 1 -16-16v-24z" fill="#fec9a3"/><path d="m200 232h16v40h-16z" fill="#feb784"/><path d="m132 293.167h16v53.666h-16z" fill="#feb784" transform="matrix(.894 -.447 .447 .894 -128.328 96.393)"/><path d="m249.167 312h53.666v16h-53.666z" fill="#feb784" transform="matrix(.447 -.894 .894 .447 -133.648 423.754)"/><path d="m400 328-8.7 24-5.79 16-43.48 120h-110.03v-80h-48v80h-113.97l-8.49-67.89a192.016 192.016 0 0 1 11.08-92.11z" fill="#34507b"/><g fill="#2f486e"><path d="m391.3 352-5.79 16h-297.51v-16z"/><path d="m200 360h16v48h-16z"/><path d="m287.122 424h73.756v16.001h-73.756z" transform="matrix(.759 -.651 .651 .759 -203.142 314.861)"/><path d="m232 408a8 8 0 0 1 6-9.594l96.205-22.2 3.6 15.59-96.2 22.2a8 8 0 0 1 -9.605-5.996z"/><path d="m173.8 413.187-48.308-13.8 4.4-15.385 48.308 13.798a8 8 0 0 1 5.494 9.89 8 8 0 0 1 -9.894 5.497z"/></g></g></svg>