<svg height="512" viewBox="0 0 512 512" width="512" xmlns="http://www.w3.org/2000/svg"><g id="Flat"><path d="m416 496v-122.523a48 48 0 0 0 -36.358-46.567l-59.642-14.91-24-24v-32h-80v32l-24 24-59.642 14.91a48 48 0 0 0 -36.358 46.567v122.523" fill="#fdc8a2"/><path d="m296 256v37.4q-2.01 1.215-4.08 2.28c-22.961 11.82-53.767 11.032-75.92-2.28v-37.4z" fill="#fdbf92"/><path d="m416 496v-122.523a48 48 0 0 0 -36.358-46.567l-59.642-14.91c-25.484 54.153-102.516 54.153-128 0l-59.642 14.91a48 48 0 0 0 -36.358 46.567v122.523" fill="#dfdfdd"/><path d="m258.977 390.01a93.538 93.538 0 0 1 -20.917-2.246l3.864-15.527c.284.071 28.653 6.814 49.3-6.665l8.657-7.217 10.244 12.29-9 7.5a8.117 8.117 0 0 1 -.684.512c-13.627 9.084-29.254 11.353-41.464 11.353z" fill="#d5d5d3"/><path d="m416 373.48v122.52h-120v-208l24 24 59.64 14.91a48 48 0 0 1 36.36 46.57z" fill="#2f486e"/><path d="m352 416h16v80h-16z" fill="#26395a"/><path d="m411.46 353.1-36.96 51.56-13-9.32 40.18-56.06a48.054 48.054 0 0 1 9.78 13.82z" fill="#26395a"/><path d="m320 312 32 40-32 16 16 24-40 80v-184z" fill="#415e89"/><path d="m216 288v208h-120v-122.52a48 48 0 0 1 36.36-46.57l59.64-14.91z" fill="#2f486e"/><path d="m144 416h16v80h-16z" fill="#26395a"/><path d="m150.52 395.36-13.04 9.28-36.83-51.76a48.018 48.018 0 0 1 9.84-13.77z" fill="#26395a"/><path d="m192 312-32 40 32 16-16 24 40 80v-184z" fill="#415e89"/><path d="m176 480h16v16h-16z" fill="#26395a"/><path d="m277.171 280h-42.342a32 32 0 0 1 -27.973-16.459l-24.816-44.668a48.008 48.008 0 0 1 -6.04-23.311v-75.562a80 80 0 0 1 80-80 80 80 0 0 1 80 80v75.562a48.008 48.008 0 0 1 -6.04 23.311l-24.816 44.668a32 32 0 0 1 -27.973 16.459z" fill="#fdc8a2"/><path d="m214 168a14 14 0 1 1 14-14 14.015 14.015 0 0 1 -14 14z" fill="#91563a"/><path d="m298 168a14 14 0 1 1 14-14 14.015 14.015 0 0 1 -14 14z" fill="#91563a"/><path d="m172 184h4v-56h-4a28 28 0 0 0 -28 28 28 28 0 0 0 28 28z" fill="#fdb683"/><path d="m340 128h-4v56h4a28 28 0 0 0 28-28 28 28 0 0 0 -28-28z" fill="#fdb683"/><path d="m312 72 24 56v-56a24 24 0 0 0 -24-24z" fill="#f67c00"/><path d="m200 72-24 56v-56a24 24 0 0 1 24-24z" fill="#f67c00"/><path d="m312 48v24h-112a54.636 54.636 0 0 1 -16-38.63v-9.37h83.16a53.9 53.9 0 0 1 44.84 24z" fill="#f88400"/><path d="m288.95 72h-17.9l-24-48h17.9z" fill="#ef7800"/><path d="m248.95 72h-17.9l-24-48h17.9z" fill="#ef7800"/><g fill="#fcb079"><path d="m248.732 224c-3.118 0-6.288-.129-9.467-.422l1.47-15.933c21.961 2.029 44.517-5.335 44.743-5.41l5.052 15.181a146.88 146.88 0 0 1 -41.798 6.584z"/><path d="m248 160h16v32h-16z"/></g></g></svg>